<svg width="816" height="486" viewBox="0 0 816 486" fill="none" xmlns="http://www.w3.org/2000/svg">
  <rect width="816" height="486" rx="16" fill="#4B4B5E"/>
  <path d="M197.089 163.646H201.793L189.403 192.5H184.699L172.309 163.646H177.013L187.051 187.04L197.089 163.646ZM206.598 167.174C205.17 167.174 204.078 165.998 204.078 164.654C204.078 163.352 205.17 162.176 206.598 162.176C207.942 162.176 209.076 163.352 209.076 164.654C209.076 165.998 207.942 167.174 206.598 167.174ZM204.498 192.5V170.786H208.656V192.5H204.498ZM221.16 193.004C217.968 193.004 214.482 191.87 211.878 189.77L213.852 186.788C216.162 188.468 218.64 189.434 221.202 189.434C223.638 189.434 225.318 188.3 225.318 186.62C225.318 184.604 223.092 183.974 220.404 183.218C215.406 181.832 212.928 180.404 212.928 176.876C212.886 172.886 216.204 170.282 220.824 170.282C223.638 170.282 226.494 171.248 228.846 172.802L226.998 175.868C224.898 174.566 222.714 173.852 220.824 173.852C218.682 173.852 217.002 174.776 217.002 176.414C217.002 178.094 218.346 178.598 222 179.732C225.57 180.782 229.392 181.958 229.392 186.284C229.392 190.4 225.906 193.004 221.16 193.004ZM247.811 170.786H251.969V192.5H247.811V189.35C246.509 191.492 243.863 193.004 240.923 193.004C236.135 193.004 232.775 189.518 232.775 184.604V170.786H236.849V183.89C236.849 187.124 238.907 189.392 241.847 189.392C244.871 189.392 247.475 187.418 247.811 184.856V170.786ZM265.75 170.282C271.588 170.282 274.822 173.978 274.822 179.354V192.5H270.748V189.518C269.152 191.786 266.17 193.004 263.524 193.004C258.904 193.004 255.502 190.316 255.502 186.074C255.502 181.748 259.408 178.85 264.196 178.85C266.338 178.85 268.648 179.312 270.748 180.026V179.354C270.748 176.624 269.488 173.726 265.162 173.726C263.02 173.726 260.92 174.566 259.03 175.532L257.518 172.466C260.626 170.912 263.356 170.282 265.75 170.282ZM264.322 189.728C267.01 189.728 270.034 188.384 270.748 185.696V182.798C268.984 182.252 266.968 181.958 264.826 181.958C261.928 181.958 259.492 183.596 259.492 185.948C259.492 188.3 261.592 189.728 264.322 189.728ZM279.47 192.5V163.142H283.586V192.5H279.47ZM290.335 167.174C288.907 167.174 287.815 165.998 287.815 164.654C287.815 163.352 288.907 162.176 290.335 162.176C291.679 162.176 292.813 163.352 292.813 164.654C292.813 165.998 291.679 167.174 290.335 167.174ZM288.235 192.5V170.786H292.393V192.5H288.235ZM296.119 192.5V189.392L308.299 174.524H296.371V170.786H313.759V173.894L301.579 188.762H313.843V192.5H296.119ZM326.613 170.282C332.451 170.282 335.685 173.978 335.685 179.354V192.5H331.611V189.518C330.015 191.786 327.033 193.004 324.387 193.004C319.767 193.004 316.365 190.316 316.365 186.074C316.365 181.748 320.271 178.85 325.059 178.85C327.201 178.85 329.511 179.312 331.611 180.026V179.354C331.611 176.624 330.351 173.726 326.025 173.726C323.883 173.726 321.783 174.566 319.893 175.532L318.381 172.466C321.489 170.912 324.219 170.282 326.613 170.282ZM325.185 189.728C327.873 189.728 330.897 188.384 331.611 185.696V182.798C329.847 182.252 327.831 181.958 325.689 181.958C322.791 181.958 320.355 183.596 320.355 185.948C320.355 188.3 322.455 189.728 325.185 189.728ZM350.497 188.594L352.009 191.45C350.833 192.416 349.237 193.004 347.683 193.004C344.323 193.004 341.971 190.568 341.971 187.082V174.314H338.695V170.786H341.971V164.822H346.045V170.786H351.169V174.314H346.045V186.788C346.045 188.3 347.053 189.392 348.271 189.392C349.195 189.392 350.035 189.056 350.497 188.594ZM356.94 167.174C355.512 167.174 354.42 165.998 354.42 164.654C354.42 163.352 355.512 162.176 356.94 162.176C358.284 162.176 359.418 163.352 359.418 164.654C359.418 165.998 358.284 167.174 356.94 167.174ZM354.84 192.5V170.786H358.998V192.5H354.84ZM373.938 193.004C367.722 193.004 362.472 187.796 362.472 181.622C362.472 175.448 367.722 170.282 373.938 170.282C380.112 170.282 385.32 175.448 385.32 181.622C385.32 187.796 380.112 193.004 373.938 193.004ZM373.938 189.392C377.844 189.392 381.162 185.864 381.162 181.622C381.162 177.422 377.844 173.894 373.938 173.894C369.948 173.894 366.63 177.422 366.63 181.622C366.63 185.864 369.948 189.392 373.938 189.392ZM399.866 170.282C404.654 170.282 408.014 173.768 408.014 178.682V192.5H403.94V179.396C403.94 176.162 401.882 173.894 398.942 173.894C395.918 173.894 393.314 175.868 392.978 178.43V192.5H388.82V170.786H392.978V173.936C394.28 171.794 396.926 170.282 399.866 170.282ZM435.304 170.282C441.016 170.282 445.3 174.986 445.3 181.622C445.3 188.3 441.016 193.004 435.304 193.004C431.944 193.004 429.256 191.408 427.576 188.72V199.724H423.46V170.786H427.576V174.524C429.256 171.878 431.944 170.282 435.304 170.282ZM434.296 189.392C438.286 189.392 441.1 186.158 441.1 181.622C441.1 177.086 438.286 173.894 434.296 173.894C430.39 173.894 427.576 177.086 427.576 181.622C427.576 186.158 430.39 189.392 434.296 189.392ZM448.955 192.5V163.142H453.071V192.5H448.955ZM466.876 170.282C472.714 170.282 475.948 173.978 475.948 179.354V192.5H471.874V189.518C470.278 191.786 467.296 193.004 464.65 193.004C460.03 193.004 456.628 190.316 456.628 186.074C456.628 181.748 460.534 178.85 465.322 178.85C467.464 178.85 469.774 179.312 471.874 180.026V179.354C471.874 176.624 470.614 173.726 466.288 173.726C464.146 173.726 462.046 174.566 460.156 175.532L458.644 172.466C461.752 170.912 464.482 170.282 466.876 170.282ZM465.448 189.728C468.136 189.728 471.16 188.384 471.874 185.696V182.798C470.11 182.252 468.094 181.958 465.952 181.958C463.054 181.958 460.618 183.596 460.618 185.948C460.618 188.3 462.718 189.728 465.448 189.728ZM490.844 193.004C484.67 193.004 479.42 187.796 479.42 181.622C479.42 175.448 484.67 170.282 490.886 170.282C493.994 170.282 496.808 171.584 498.866 173.642L496.052 176.246C494.75 174.776 492.86 173.894 490.844 173.894C486.896 173.894 483.62 177.422 483.62 181.622C483.62 185.864 486.896 189.392 490.886 189.392C492.902 189.392 494.834 188.468 496.178 186.956L498.992 189.518C496.892 191.66 494.078 193.004 490.844 193.004ZM512.031 189.308C514.299 189.308 516.945 188.3 518.247 186.956L520.851 189.644C518.919 191.702 515.139 193.004 512.073 193.004C506.025 193.004 500.901 188.258 500.901 181.58C500.901 175.07 505.731 170.282 511.737 170.282C518.373 170.282 522.195 175.322 522.195 183.092H505.101C505.647 186.704 508.293 189.308 512.031 189.308ZM511.905 173.978C508.545 173.978 505.815 176.246 505.143 179.774H518.163C517.701 176.414 515.643 173.978 511.905 173.978ZM536.696 170.282C541.484 170.282 544.844 173.768 544.844 178.682V192.5H540.77V179.396C540.77 176.162 538.712 173.894 535.772 173.894C532.496 173.894 529.766 176.204 529.766 179.018V192.5H525.65V163.142H529.766V174.02C531.068 171.836 533.714 170.282 536.696 170.282ZM559.717 193.004C553.501 193.004 548.251 187.796 548.251 181.622C548.251 175.448 553.501 170.282 559.717 170.282C565.891 170.282 571.099 175.448 571.099 181.622C571.099 187.796 565.891 193.004 559.717 193.004ZM559.717 189.392C563.623 189.392 566.941 185.864 566.941 181.622C566.941 177.422 563.623 173.894 559.717 173.894C555.727 173.894 552.409 177.422 552.409 181.622C552.409 185.864 555.727 189.392 559.717 189.392ZM574.599 192.5V163.142H578.715V192.5H574.599ZM600.122 163.142H604.238V192.5H600.122V188.72C598.442 191.408 595.754 193.004 592.394 193.004C586.682 193.004 582.398 188.3 582.398 181.622C582.398 174.986 586.682 170.282 592.394 170.282C595.754 170.282 598.442 171.878 600.122 174.524V163.142ZM593.402 189.392C597.308 189.392 600.122 186.158 600.122 181.622C600.122 177.086 597.308 173.894 593.402 173.894C589.412 173.894 586.598 177.086 586.598 181.622C586.598 186.158 589.412 189.392 593.402 189.392ZM619.065 189.308C621.333 189.308 623.979 188.3 625.281 186.956L627.885 189.644C625.953 191.702 622.173 193.004 619.107 193.004C613.059 193.004 607.935 188.258 607.935 181.58C607.935 175.07 612.765 170.282 618.771 170.282C625.407 170.282 629.229 175.322 629.229 183.092H612.135C612.681 186.704 615.327 189.308 619.065 189.308ZM618.939 173.978C615.579 173.978 612.849 176.246 612.177 179.774H625.197C624.735 176.414 622.677 173.978 618.939 173.978ZM637.052 174.944C638.438 172.088 641.378 170.282 645.116 170.282V173.894C640.622 173.894 637.43 176.372 637.052 180.152V192.5H632.894V170.786H637.052V174.944ZM187.574 256.004C181.4 256.004 176.15 250.796 176.15 244.622C176.15 238.448 181.4 233.282 187.616 233.282C190.724 233.282 193.538 234.584 195.596 236.642L192.782 239.246C191.48 237.776 189.59 236.894 187.574 236.894C183.626 236.894 180.35 240.422 180.35 244.622C180.35 248.864 183.626 252.392 187.616 252.392C189.632 252.392 191.564 251.468 192.908 249.956L195.722 252.518C193.622 254.66 190.808 256.004 187.574 256.004ZM208.646 256.004C202.43 256.004 197.18 250.796 197.18 244.622C197.18 238.448 202.43 233.282 208.646 233.282C214.82 233.282 220.028 238.448 220.028 244.622C220.028 250.796 214.82 256.004 208.646 256.004ZM208.646 252.392C212.552 252.392 215.87 248.864 215.87 244.622C215.87 240.422 212.552 236.894 208.646 236.894C204.656 236.894 201.338 240.422 201.338 244.622C201.338 248.864 204.656 252.392 208.646 252.392ZM234.574 233.282C239.362 233.282 242.722 236.768 242.722 241.682V255.5H238.648V242.396C238.648 239.162 236.59 236.894 233.65 236.894C230.626 236.894 228.022 238.868 227.686 241.43V255.5H223.528V233.786H227.686V236.936C228.988 234.794 231.634 233.282 234.574 233.282ZM257.469 251.594L258.981 254.45C257.805 255.416 256.209 256.004 254.655 256.004C251.295 256.004 248.943 253.568 248.943 250.082V237.314H245.667V233.786H248.943V227.822H253.017V233.786H258.141V237.314H253.017V249.788C253.017 251.3 254.025 252.392 255.243 252.392C256.167 252.392 257.007 252.056 257.469 251.594ZM270.968 233.282C276.806 233.282 280.04 236.978 280.04 242.354V255.5H275.966V252.518C274.37 254.786 271.388 256.004 268.742 256.004C264.122 256.004 260.72 253.316 260.72 249.074C260.72 244.748 264.626 241.85 269.414 241.85C271.556 241.85 273.866 242.312 275.966 243.026V242.354C275.966 239.624 274.706 236.726 270.38 236.726C268.238 236.726 266.138 237.566 264.248 238.532L262.736 235.466C265.844 233.912 268.574 233.282 270.968 233.282ZM269.54 252.728C272.228 252.728 275.252 251.384 275.966 248.696V245.798C274.202 245.252 272.186 244.958 270.044 244.958C267.146 244.958 264.71 246.596 264.71 248.948C264.71 251.3 266.81 252.728 269.54 252.728ZM286.746 230.174C285.318 230.174 284.226 228.998 284.226 227.654C284.226 226.352 285.318 225.176 286.746 225.176C288.09 225.176 289.224 226.352 289.224 227.654C289.224 228.998 288.09 230.174 286.746 230.174ZM284.646 255.5V233.786H288.804V255.5H284.646ZM304.5 233.282C309.288 233.282 312.648 236.768 312.648 241.682V255.5H308.574V242.396C308.574 239.162 306.516 236.894 303.576 236.894C300.552 236.894 297.948 238.868 297.612 241.43V255.5H293.454V233.786H297.612V236.936C298.914 234.794 301.56 233.282 304.5 233.282ZM327.186 252.308C329.454 252.308 332.1 251.3 333.402 249.956L336.006 252.644C334.074 254.702 330.294 256.004 327.228 256.004C321.18 256.004 316.056 251.258 316.056 244.58C316.056 238.07 320.886 233.282 326.892 233.282C333.528 233.282 337.35 238.322 337.35 246.092H320.256C320.802 249.704 323.448 252.308 327.186 252.308ZM327.06 236.978C323.7 236.978 320.97 239.246 320.298 242.774H333.318C332.856 239.414 330.798 236.978 327.06 236.978ZM345.172 237.944C346.558 235.088 349.498 233.282 353.236 233.282V236.894C348.742 236.894 345.55 239.372 345.172 243.152V255.5H341.014V233.786H345.172V237.944ZM358.028 261.254L356.264 259.91C357.482 258.65 358.238 257.306 358.574 256.004C357.062 256.004 355.844 254.744 355.844 253.19C355.844 251.72 357.062 250.418 358.658 250.418C360.506 250.418 361.682 252.098 361.682 254.408C361.682 256.382 360.716 258.188 358.028 261.254ZM389.971 255.5V248.864H375.649L375.187 245.462L389.173 226.646H394.213V245.126H398.371V248.864H394.213V255.5H389.971ZM379.849 245.126H389.971V231.476L379.849 245.126ZM404.476 239.33C402.88 239.33 401.662 238.028 401.662 236.474C401.662 235.046 402.88 233.744 404.476 233.744C405.988 233.744 407.206 235.046 407.206 236.474C407.206 238.028 405.988 239.33 404.476 239.33ZM404.476 256.004C402.88 256.004 401.662 254.702 401.662 253.148C401.662 251.72 402.88 250.418 404.476 250.418C405.988 250.418 407.206 251.72 407.206 253.148C407.206 254.702 405.988 256.004 404.476 256.004ZM420.946 256.004C416.032 256.004 412.294 253.862 410.068 251.09L412.798 248.276C414.73 250.628 417.544 252.182 420.862 252.182C424.6 252.182 426.994 250.208 426.994 247.31C426.994 244.328 424.516 242.774 420.19 242.816H417.04V239.036L420.19 239.078C423.844 239.078 426.406 237.482 426.406 234.584C426.406 231.896 423.886 229.964 420.526 229.964C417.502 229.964 415.276 231.476 413.26 233.828L410.614 231.224C412.84 228.326 416.116 226.142 420.82 226.142C426.658 226.142 430.732 229.376 430.732 233.996C430.732 237.566 428.212 239.792 425.188 240.716C428.212 241.388 431.362 243.572 431.362 247.604C431.362 252.476 427.204 256.004 420.946 256.004ZM454.206 262.64C448.494 258.062 445.218 251.678 445.218 244.37C445.218 237.02 448.494 230.678 454.206 226.1L456.39 228.368C451.854 232.988 449.502 237.734 449.502 244.37C449.502 250.964 451.854 255.752 456.39 260.33L454.206 262.64ZM469.65 256.004C463.56 256.004 458.772 252.854 458.772 247.898C458.772 244.328 461.46 241.766 464.904 240.59C461.754 239.33 459.528 237.146 459.528 233.87C459.528 228.956 464.442 226.142 469.65 226.142C475.026 226.142 479.814 229.082 479.814 233.87C479.814 237.314 477.378 239.456 474.438 240.59C477.882 241.808 480.528 244.37 480.528 247.898C480.528 252.896 475.698 256.004 469.65 256.004ZM469.65 238.994C472.296 238.826 475.572 237.23 475.572 234.332C475.572 231.77 472.968 229.88 469.65 229.88C466.332 229.88 463.77 231.77 463.77 234.332C463.77 237.314 467.088 238.826 469.65 238.994ZM469.65 252.266C473.346 252.266 476.244 250.334 476.244 247.52C476.244 244.454 472.506 242.606 469.65 242.522C466.836 242.606 463.056 244.454 463.056 247.52C463.056 250.334 465.954 252.266 469.65 252.266ZM497.404 255.5V248.864H483.082L482.62 245.462L496.606 226.646H501.646V245.126H505.804V248.864H501.646V255.5H497.404ZM487.282 245.126H497.404V231.476L487.282 245.126ZM519.133 256.004C513.043 256.004 508.255 252.854 508.255 247.898C508.255 244.328 510.943 241.766 514.387 240.59C511.237 239.33 509.011 237.146 509.011 233.87C509.011 228.956 513.925 226.142 519.133 226.142C524.509 226.142 529.297 229.082 529.297 233.87C529.297 237.314 526.861 239.456 523.921 240.59C527.365 241.808 530.011 244.37 530.011 247.898C530.011 252.896 525.181 256.004 519.133 256.004ZM519.133 238.994C521.779 238.826 525.055 237.23 525.055 234.332C525.055 231.77 522.451 229.88 519.133 229.88C515.815 229.88 513.253 231.77 513.253 234.332C513.253 237.314 516.571 238.826 519.133 238.994ZM519.133 252.266C522.829 252.266 525.727 250.334 525.727 247.52C525.727 244.454 521.989 242.606 519.133 242.522C516.319 242.606 512.539 244.454 512.539 247.52C512.539 250.334 515.437 252.266 519.133 252.266ZM552.893 255.5H548.231L542.309 247.52L536.345 255.5H531.725L539.999 244.412L532.061 233.786H536.765L542.309 241.262L547.895 233.786H552.515L544.619 244.37L552.893 255.5ZM567.054 237.272C572.346 237.272 576.756 240.59 576.756 246.302C576.756 251.846 572.388 256.004 566.298 256.004C558.276 256.004 554.874 249.746 554.874 241.514C554.874 232.778 560.04 226.142 567.096 226.142C570.624 226.142 573.27 227.486 575.496 229.46L573.312 232.736C571.506 231.098 569.7 229.964 567.054 229.964C562.644 229.964 559.326 234.71 559.2 241.094C560.964 238.7 563.862 237.272 567.054 237.272ZM566.13 252.392C570.036 252.392 572.388 249.41 572.388 246.512C572.388 242.984 569.574 240.842 566.046 240.842C562.854 240.842 560.292 242.69 559.536 245.504C560.292 249.62 562.35 252.392 566.13 252.392ZM590.044 256.004C585.13 256.004 581.392 253.862 579.166 251.09L581.896 248.276C583.828 250.628 586.642 252.182 589.96 252.182C593.698 252.182 596.092 250.208 596.092 247.31C596.092 244.328 593.614 242.774 589.288 242.816H586.138V239.036L589.288 239.078C592.942 239.078 595.504 237.482 595.504 234.584C595.504 231.896 592.984 229.964 589.624 229.964C586.6 229.964 584.374 231.476 582.358 233.828L579.712 231.224C581.938 228.326 585.214 226.142 589.918 226.142C595.756 226.142 599.83 229.376 599.83 233.996C599.83 237.566 597.31 239.792 594.286 240.716C597.31 241.388 600.46 243.572 600.46 247.604C600.46 252.476 596.302 256.004 590.044 256.004ZM615.675 237.272C620.967 237.272 625.377 240.59 625.377 246.302C625.377 251.846 621.009 256.004 614.919 256.004C606.897 256.004 603.495 249.746 603.495 241.514C603.495 232.778 608.661 226.142 615.717 226.142C619.245 226.142 621.891 227.486 624.117 229.46L621.933 232.736C620.127 231.098 618.321 229.964 615.675 229.964C611.265 229.964 607.947 234.71 607.821 241.094C609.585 238.7 612.483 237.272 615.675 237.272ZM614.751 252.392C618.657 252.392 621.009 249.41 621.009 246.512C621.009 242.984 618.195 240.842 614.667 240.842C611.475 240.842 608.913 242.69 608.157 245.504C608.913 249.62 610.971 252.392 614.751 252.392ZM630.265 262.64L628.081 260.33C632.575 255.752 634.969 250.964 634.969 244.37C634.969 237.734 632.575 232.988 628.081 228.368L630.265 226.1C635.977 230.678 639.253 237.02 639.253 244.37C639.253 251.678 635.977 258.062 630.265 262.64ZM192.704 318.5V289.646H206.396C211.226 289.646 214.628 292.628 214.628 296.828C214.628 299.852 213.116 301.742 210.512 303.212C213.872 304.85 215.804 307.454 215.804 310.646C215.804 315.266 212.108 318.5 206.942 318.5H192.704ZM196.946 301.658H205.346C208.244 301.658 210.302 299.936 210.302 297.542C210.302 295.148 208.244 293.384 205.346 293.384H196.946V301.658ZM196.946 314.762H205.976C209.21 314.762 211.478 312.788 211.478 310.016C211.478 307.244 209.21 305.27 205.976 305.27H196.946V314.762ZM223.993 300.944C225.379 298.088 228.319 296.282 232.057 296.282V299.894C227.563 299.894 224.371 302.372 223.993 306.152V318.5H219.835V296.786H223.993V300.944ZM244.703 315.308C246.971 315.308 249.617 314.3 250.919 312.956L253.523 315.644C251.591 317.702 247.811 319.004 244.745 319.004C238.697 319.004 233.573 314.258 233.573 307.58C233.573 301.07 238.403 296.282 244.409 296.282C251.045 296.282 254.867 301.322 254.867 309.092H237.773C238.319 312.704 240.965 315.308 244.703 315.308ZM244.577 299.978C241.217 299.978 238.487 302.246 237.815 305.774H250.835C250.373 302.414 248.315 299.978 244.577 299.978ZM267.435 296.282C273.273 296.282 276.507 299.978 276.507 305.354V318.5H272.433V315.518C270.837 317.786 267.855 319.004 265.209 319.004C260.589 319.004 257.187 316.316 257.187 312.074C257.187 307.748 261.093 304.85 265.881 304.85C268.023 304.85 270.333 305.312 272.433 306.026V305.354C272.433 302.624 271.173 299.726 266.847 299.726C264.705 299.726 262.605 300.566 260.715 301.532L259.203 298.466C262.311 296.912 265.041 296.282 267.435 296.282ZM266.007 315.728C268.695 315.728 271.719 314.384 272.433 311.696V308.798C270.669 308.252 268.653 307.958 266.511 307.958C263.613 307.958 261.177 309.596 261.177 311.948C261.177 314.3 263.277 315.728 266.007 315.728ZM300.895 296.786L291.529 306.614L300.475 318.5H295.519L288.715 309.386L285.229 312.914V318.5H281.113V289.142H285.229V307.874L295.855 296.786H300.895ZM315.018 296.282C320.73 296.282 325.014 300.986 325.014 307.622C325.014 314.3 320.73 319.004 315.018 319.004C311.658 319.004 308.97 317.408 307.29 314.72V325.724H303.174V296.786H307.29V300.524C308.97 297.878 311.658 296.282 315.018 296.282ZM314.01 315.392C318 315.392 320.814 312.158 320.814 307.622C320.814 303.086 318 299.894 314.01 299.894C310.104 299.894 307.29 303.086 307.29 307.622C307.29 312.158 310.104 315.392 314.01 315.392ZM338.96 319.004C332.744 319.004 327.494 313.796 327.494 307.622C327.494 301.448 332.744 296.282 338.96 296.282C345.134 296.282 350.342 301.448 350.342 307.622C350.342 313.796 345.134 319.004 338.96 319.004ZM338.96 315.392C342.866 315.392 346.184 311.864 346.184 307.622C346.184 303.422 342.866 299.894 338.96 299.894C334.97 299.894 331.652 303.422 331.652 307.622C331.652 311.864 334.97 315.392 338.96 315.392ZM355.9 293.174C354.472 293.174 353.38 291.998 353.38 290.654C353.38 289.352 354.472 288.176 355.9 288.176C357.244 288.176 358.378 289.352 358.378 290.654C358.378 291.998 357.244 293.174 355.9 293.174ZM353.8 318.5V296.786H357.958V318.5H353.8ZM373.654 296.282C378.442 296.282 381.802 299.768 381.802 304.682V318.5H377.728V305.396C377.728 302.162 375.67 299.894 372.73 299.894C369.706 299.894 367.102 301.868 366.766 304.43V318.5H362.608V296.786H366.766V299.936C368.068 297.794 370.714 296.282 373.654 296.282ZM396.549 314.594L398.061 317.45C396.885 318.416 395.289 319.004 393.735 319.004C390.375 319.004 388.023 316.568 388.023 313.082V300.314H384.747V296.786H388.023V290.822H392.097V296.786H397.221V300.314H392.097V312.788C392.097 314.3 393.105 315.392 394.323 315.392C395.247 315.392 396.087 315.056 396.549 314.594ZM403.538 302.33C401.942 302.33 400.724 301.028 400.724 299.474C400.724 298.046 401.942 296.744 403.538 296.744C405.05 296.744 406.268 298.046 406.268 299.474C406.268 301.028 405.05 302.33 403.538 302.33ZM403.538 319.004C401.942 319.004 400.724 317.702 400.724 316.148C400.724 314.72 401.942 313.418 403.538 313.418C405.05 313.418 406.268 314.72 406.268 316.148C406.268 317.702 405.05 319.004 403.538 319.004ZM425.999 318.5V294.686L421.001 297.878L419.237 294.812L426.839 289.646H430.283V318.5H425.999ZM445.425 289.142C453.447 289.142 456.849 295.4 456.849 303.632C456.849 312.368 451.683 319.004 444.627 319.004C441.099 319.004 438.453 317.66 436.227 315.686L438.411 312.41C440.217 314.048 442.023 315.182 444.669 315.182C449.079 315.182 452.397 310.436 452.523 304.052C450.759 306.446 447.861 307.874 444.669 307.874C439.377 307.874 434.967 304.556 434.967 298.844C434.967 293.3 439.335 289.142 445.425 289.142ZM445.677 304.304C448.869 304.304 451.431 302.456 452.187 299.642C451.431 295.526 449.373 292.754 445.593 292.754C441.687 292.754 439.335 295.736 439.335 298.634C439.335 302.162 442.149 304.304 445.677 304.304ZM459.721 318.5V315.014L470.305 306.278C474.169 303.044 475.639 300.566 475.639 297.962C475.639 294.812 473.035 292.964 470.179 292.964C467.029 292.964 464.719 294.644 462.703 297.248L459.847 294.728C462.367 291.242 465.769 289.142 470.347 289.142C475.723 289.142 480.007 292.628 480.007 297.878C480.007 301.742 478.159 304.808 473.203 308.84L466.441 314.552H480.259V318.5H459.721ZM496.018 319.004C488.752 319.004 483.67 312.83 483.67 304.052C483.67 295.316 488.752 289.142 496.018 289.142C503.2 289.142 508.324 295.316 508.324 304.052C508.324 312.83 503.2 319.004 496.018 319.004ZM496.018 315.098C500.68 315.098 503.956 310.52 503.956 304.052C503.956 297.584 500.68 293.048 496.018 293.048C491.314 293.048 487.996 297.584 487.996 304.052C487.996 310.52 491.314 315.098 496.018 315.098ZM531.5 318.5H526.838L520.916 310.52L514.952 318.5H510.332L518.606 307.412L510.668 296.786H515.372L520.916 304.262L526.502 296.786H531.122L523.226 307.37L531.5 318.5ZM538.899 318.5V294.686L533.901 297.878L532.137 294.812L539.739 289.646H543.183V318.5H538.899ZM560.173 319.004C552.907 319.004 547.825 312.83 547.825 304.052C547.825 295.316 552.907 289.142 560.173 289.142C567.355 289.142 572.479 295.316 572.479 304.052C572.479 312.83 567.355 319.004 560.173 319.004ZM560.173 315.098C564.835 315.098 568.111 310.52 568.111 304.052C568.111 297.584 564.835 293.048 560.173 293.048C555.469 293.048 552.151 297.584 552.151 304.052C552.151 310.52 555.469 315.098 560.173 315.098ZM586.247 319.004C580.157 319.004 575.369 315.854 575.369 310.898C575.369 307.328 578.057 304.766 581.501 303.59C578.351 302.33 576.125 300.146 576.125 296.87C576.125 291.956 581.039 289.142 586.247 289.142C591.623 289.142 596.411 292.082 596.411 296.87C596.411 300.314 593.975 302.456 591.035 303.59C594.479 304.808 597.125 307.37 597.125 310.898C597.125 315.896 592.295 319.004 586.247 319.004ZM586.247 301.994C588.893 301.826 592.169 300.23 592.169 297.332C592.169 294.77 589.565 292.88 586.247 292.88C582.929 292.88 580.367 294.77 580.367 297.332C580.367 300.314 583.685 301.826 586.247 301.994ZM586.247 315.266C589.943 315.266 592.841 313.334 592.841 310.52C592.841 307.454 589.103 305.606 586.247 305.522C583.433 305.606 579.653 307.454 579.653 310.52C579.653 313.334 582.551 315.266 586.247 315.266ZM612.362 319.004C605.096 319.004 600.014 312.83 600.014 304.052C600.014 295.316 605.096 289.142 612.362 289.142C619.544 289.142 624.668 295.316 624.668 304.052C624.668 312.83 619.544 319.004 612.362 319.004ZM612.362 315.098C617.024 315.098 620.3 310.52 620.3 304.052C620.3 297.584 617.024 293.048 612.362 293.048C607.658 293.048 604.34 297.584 604.34 304.052C604.34 310.52 607.658 315.098 612.362 315.098Z" fill="white"/>
  </svg>
  