<?xml version="1.0" encoding="utf-8"?>
<!-- Generator: Adobe Illustrator 22.0.0, SVG Export Plug-In . SVG Version: 6.00 Build 0)  -->
<svg version="1.1" id="图层_1" xmlns="http://www.w3.org/2000/svg" xmlns:xlink="http://www.w3.org/1999/xlink" x="0px" y="0px"
	 viewBox="0 0 612 792" style="enable-background:new 0 0 612 792;" xml:space="preserve">
<style type="text/css">
	.st0{fill-rule:evenodd;clip-rule:evenodd;fill:#FFFFFF;}
	.st1{clip-path:url(#SVGID_2_);fill:none;stroke:#D9D9D9;stroke-width:0.75;stroke-linejoin:round;stroke-miterlimit:10;}
	.st2{clip-path:url(#SVGID_4_);fill:none;stroke:#D9D9D9;stroke-width:0.75;stroke-linejoin:round;stroke-miterlimit:10;}
	
		.st3{clip-path:url(#SVGID_6_);fill:none;stroke:#416DB4;stroke-width:2.25;stroke-linecap:round;stroke-linejoin:round;stroke-miterlimit:10;}
	
		.st4{clip-path:url(#SVGID_8_);fill:none;stroke:#E37A34;stroke-width:2.25;stroke-linecap:round;stroke-linejoin:round;stroke-miterlimit:10;}
	
		.st5{clip-path:url(#SVGID_10_);fill:none;stroke:#A6A6A5;stroke-width:2.25;stroke-linecap:round;stroke-linejoin:round;stroke-miterlimit:10;}
	
		.st6{clip-path:url(#SVGID_12_);fill:none;stroke:#F4BB1B;stroke-width:2.25;stroke-linecap:round;stroke-linejoin:round;stroke-miterlimit:10;}
	
		.st7{clip-path:url(#SVGID_14_);fill:none;stroke:#4BBDE7;stroke-width:2.25;stroke-linecap:round;stroke-linejoin:round;stroke-miterlimit:10;}
	.st8{clip-path:url(#SVGID_16_);}
	.st9{clip-path:url(#SVGID_18_);}
	.st10{fill:#595959;}
	.st11{font-family:'Calibri';}
	.st12{font-size:9px;}
	.st13{clip-path:url(#SVGID_20_);}
	.st14{clip-path:url(#SVGID_22_);}
	.st15{clip-path:url(#SVGID_24_);}
	.st16{clip-path:url(#SVGID_26_);}
	.st17{clip-path:url(#SVGID_28_);}
	.st18{clip-path:url(#SVGID_30_);}
	.st19{clip-path:url(#SVGID_32_);}
	.st20{clip-path:url(#SVGID_34_);}
	.st21{clip-path:url(#SVGID_36_);}
	.st22{clip-path:url(#SVGID_38_);}
	.st23{clip-path:url(#SVGID_40_);}
	.st24{clip-path:url(#SVGID_42_);}
	.st25{clip-path:url(#SVGID_44_);}
	.st26{clip-path:url(#SVGID_46_);}
	.st27{clip-path:url(#SVGID_48_);}
	.st28{clip-path:url(#SVGID_50_);}
	.st29{clip-path:url(#SVGID_52_);}
	.st30{clip-path:url(#SVGID_54_);}
	.st31{clip-path:url(#SVGID_56_);}
	.st32{clip-path:url(#SVGID_58_);}
	.st33{clip-path:url(#SVGID_60_);}
	.st34{clip-path:url(#SVGID_62_);}
	.st35{clip-path:url(#SVGID_64_);}
	.st36{clip-path:url(#SVGID_66_);}
	.st37{clip-path:url(#SVGID_68_);}
	.st38{clip-path:url(#SVGID_70_);}
	.st39{clip-path:url(#SVGID_72_);}
	.st40{clip-path:url(#SVGID_74_);}
	
		.st41{clip-path:url(#SVGID_76_);fill:none;stroke:#416DB4;stroke-width:2.25;stroke-linecap:round;stroke-linejoin:round;stroke-miterlimit:10;}
	.st42{clip-path:url(#SVGID_78_);}
	.st43{clip-path:url(#SVGID_80_);}
	
		.st44{clip-path:url(#SVGID_82_);fill:none;stroke:#E37A34;stroke-width:2.25;stroke-linecap:round;stroke-linejoin:round;stroke-miterlimit:10;}
	.st45{clip-path:url(#SVGID_84_);}
	.st46{clip-path:url(#SVGID_86_);}
	
		.st47{clip-path:url(#SVGID_88_);fill:none;stroke:#A6A6A5;stroke-width:2.25;stroke-linecap:round;stroke-linejoin:round;stroke-miterlimit:10;}
	.st48{clip-path:url(#SVGID_90_);}
	.st49{clip-path:url(#SVGID_92_);}
	
		.st50{clip-path:url(#SVGID_94_);fill:none;stroke:#F4BB1B;stroke-width:2.25;stroke-linecap:round;stroke-linejoin:round;stroke-miterlimit:10;}
	.st51{clip-path:url(#SVGID_96_);}
	.st52{clip-path:url(#SVGID_98_);}
	
		.st53{clip-path:url(#SVGID_100_);fill:none;stroke:#4BBDE7;stroke-width:2.25;stroke-linecap:round;stroke-linejoin:round;stroke-miterlimit:10;}
	.st54{clip-path:url(#SVGID_102_);}
	.st55{clip-path:url(#SVGID_104_);}
	.st56{font-family:'TimesNewRomanPSMT';}
	.st57{font-size:12px;}
</style>
<g>
	<polygon class="st0" points="120.3,288.1 491.9,288.1 491.9,504 120.3,504 120.3,288.1 	"/>
	<g>
		<defs>
			<polygon id="SVGID_1_" points="120.1,504 491.9,504 491.9,288 120.1,288 120.1,504 			"/>
		</defs>
		<clipPath id="SVGID_2_">
			<use xlink:href="#SVGID_1_"  style="overflow:visible;"/>
		</clipPath>
		<path class="st1" d="M157.8,462.7h205.3 M157.8,444.5h205.3 M157.8,426.4h205.3 M157.8,408.1h205.3 M157.8,390h205.3 M157.8,371.8
			h205.3 M157.8,353.7h205.3 M157.8,335.4h205.3 M157.8,317.3h205.3 M157.8,299.1h205.3"/>
	</g>
	<g>
		<defs>
			<polygon id="SVGID_3_" points="120.1,504 491.9,504 491.9,288 120.1,288 120.1,504 			"/>
		</defs>
		<clipPath id="SVGID_4_">
			<use xlink:href="#SVGID_3_"  style="overflow:visible;"/>
		</clipPath>
		<line class="st2" x1="157.8" y1="480.9" x2="363.1" y2="480.9"/>
	</g>
	<g>
		<defs>
			<polygon id="SVGID_5_" points="157.8,481.6 363.7,481.6 363.7,299.1 157.8,299.1 157.8,481.6 			"/>
		</defs>
		<clipPath id="SVGID_6_">
			<use xlink:href="#SVGID_5_"  style="overflow:visible;"/>
		</clipPath>
		<polyline class="st3" points="183.6,456.6 234.8,459.4 286.2,466.6 337.4,475 		"/>
	</g>
	<g>
		<defs>
			<polygon id="SVGID_7_" points="157.8,481.6 363.7,481.6 363.7,299.1 157.8,299.1 157.8,481.6 			"/>
		</defs>
		<clipPath id="SVGID_8_">
			<use xlink:href="#SVGID_7_"  style="overflow:visible;"/>
		</clipPath>
		<polyline class="st4" points="183.6,312.6 234.8,339.4 286.2,423.8 337.4,461.4 		"/>
	</g>
	<g>
		<defs>
			<polygon id="SVGID_9_" points="157.8,481.6 363.7,481.6 363.7,299.1 157.8,299.1 157.8,481.6 			"/>
		</defs>
		<clipPath id="SVGID_10_">
			<use xlink:href="#SVGID_9_"  style="overflow:visible;"/>
		</clipPath>
		<polyline class="st5" points="183.6,408.7 234.8,407.4 286.2,429.4 337.4,464.6 		"/>
	</g>
	<g>
		<defs>
			<polygon id="SVGID_11_" points="157.8,481.6 363.7,481.6 363.7,299.1 157.8,299.1 157.8,481.6 			"/>
		</defs>
		<clipPath id="SVGID_12_">
			<use xlink:href="#SVGID_11_"  style="overflow:visible;"/>
		</clipPath>
		<polyline class="st6" points="183.6,441.2 234.8,449 286.2,473.6 337.4,478.5 		"/>
	</g>
	<g>
		<defs>
			<polygon id="SVGID_13_" points="157.8,481.6 363.7,481.6 363.7,299.1 157.8,299.1 157.8,481.6 			"/>
		</defs>
		<clipPath id="SVGID_14_">
			<use xlink:href="#SVGID_13_"  style="overflow:visible;"/>
		</clipPath>
		<polyline class="st7" points="183.6,332.8 234.8,358 286.2,436.9 337.4,466 		"/>
	</g>
	<g>
		<defs>
			<polygon id="SVGID_15_" points="120.1,504 491.9,504 491.9,288 120.1,288 120.1,504 			"/>
		</defs>
		<clipPath id="SVGID_16_">
			<use xlink:href="#SVGID_15_"  style="overflow:visible;"/>
		</clipPath>
		<g class="st8">
			<defs>
				<rect id="SVGID_17_" x="120.1" y="288" width="371.8" height="216"/>
			</defs>
			<clipPath id="SVGID_18_">
				<use xlink:href="#SVGID_17_"  style="overflow:visible;"/>
			</clipPath>
			<g class="st9">
				<text transform="matrix(1 0 0 1 144.9531 483.4141)" class="st10 st11 st12">0</text>
			</g>
		</g>
	</g>
	<g>
		<defs>
			<polygon id="SVGID_19_" points="120.1,504 491.9,504 491.9,288 120.1,288 120.1,504 			"/>
		</defs>
		<clipPath id="SVGID_20_">
			<use xlink:href="#SVGID_19_"  style="overflow:visible;"/>
		</clipPath>
		<g class="st13">
			<defs>
				<rect id="SVGID_21_" x="120.1" y="288" width="371.8" height="216"/>
			</defs>
			<clipPath id="SVGID_22_">
				<use xlink:href="#SVGID_21_"  style="overflow:visible;"/>
			</clipPath>
			<g class="st14">
				<text transform="matrix(1 0 0 1 131.2734 465.2344)" class="st10 st11 st12">5000</text>
			</g>
		</g>
	</g>
	<g>
		<defs>
			<polygon id="SVGID_23_" points="120.1,504 491.9,504 491.9,288 120.1,288 120.1,504 			"/>
		</defs>
		<clipPath id="SVGID_24_">
			<use xlink:href="#SVGID_23_"  style="overflow:visible;"/>
		</clipPath>
		<g class="st15">
			<defs>
				<rect id="SVGID_25_" x="120.1" y="288" width="371.8" height="216"/>
			</defs>
			<clipPath id="SVGID_26_">
				<use xlink:href="#SVGID_25_"  style="overflow:visible;"/>
			</clipPath>
			<g class="st16">
				<text transform="matrix(1 0 0 1 126.7109 447.0469)" class="st10 st11 st12">10,000</text>
			</g>
		</g>
	</g>
	<g>
		<defs>
			<polygon id="SVGID_27_" points="120.1,504 491.9,504 491.9,288 120.1,288 120.1,504 			"/>
		</defs>
		<clipPath id="SVGID_28_">
			<use xlink:href="#SVGID_27_"  style="overflow:visible;"/>
		</clipPath>
		<g class="st17">
			<defs>
				<rect id="SVGID_29_" x="120.1" y="288" width="371.8" height="216"/>
			</defs>
			<clipPath id="SVGID_30_">
				<use xlink:href="#SVGID_29_"  style="overflow:visible;"/>
			</clipPath>
			<g class="st18">
				<text transform="matrix(1 0 0 1 126.7109 428.875)" class="st10 st11 st12">15,000</text>
			</g>
		</g>
	</g>
	<g>
		<defs>
			<polygon id="SVGID_31_" points="120.1,504 491.9,504 491.9,288 120.1,288 120.1,504 			"/>
		</defs>
		<clipPath id="SVGID_32_">
			<use xlink:href="#SVGID_31_"  style="overflow:visible;"/>
		</clipPath>
		<g class="st19">
			<defs>
				<rect id="SVGID_33_" x="120.1" y="288" width="371.8" height="216"/>
			</defs>
			<clipPath id="SVGID_34_">
				<use xlink:href="#SVGID_33_"  style="overflow:visible;"/>
			</clipPath>
			<g class="st20">
				<text transform="matrix(1 0 0 1 126.7109 410.6875)" class="st10 st11 st12">20,000</text>
			</g>
		</g>
	</g>
	<g>
		<defs>
			<polygon id="SVGID_35_" points="120.1,504 491.9,504 491.9,288 120.1,288 120.1,504 			"/>
		</defs>
		<clipPath id="SVGID_36_">
			<use xlink:href="#SVGID_35_"  style="overflow:visible;"/>
		</clipPath>
		<g class="st21">
			<defs>
				<rect id="SVGID_37_" x="120.1" y="288" width="371.8" height="216"/>
			</defs>
			<clipPath id="SVGID_38_">
				<use xlink:href="#SVGID_37_"  style="overflow:visible;"/>
			</clipPath>
			<g class="st22">
				<text transform="matrix(1 0 0 1 126.7109 392.5078)" class="st10 st11 st12">25,000</text>
			</g>
		</g>
	</g>
	<g>
		<defs>
			<polygon id="SVGID_39_" points="120.1,504 491.9,504 491.9,288 120.1,288 120.1,504 			"/>
		</defs>
		<clipPath id="SVGID_40_">
			<use xlink:href="#SVGID_39_"  style="overflow:visible;"/>
		</clipPath>
		<g class="st23">
			<defs>
				<rect id="SVGID_41_" x="120.1" y="288" width="371.8" height="216"/>
			</defs>
			<clipPath id="SVGID_42_">
				<use xlink:href="#SVGID_41_"  style="overflow:visible;"/>
			</clipPath>
			<g class="st24">
				<text transform="matrix(1 0 0 1 126.7109 374.3359)" class="st10 st11 st12">30,000</text>
			</g>
		</g>
	</g>
	<g>
		<defs>
			<polygon id="SVGID_43_" points="120.1,504 491.9,504 491.9,288 120.1,288 120.1,504 			"/>
		</defs>
		<clipPath id="SVGID_44_">
			<use xlink:href="#SVGID_43_"  style="overflow:visible;"/>
		</clipPath>
		<g class="st25">
			<defs>
				<rect id="SVGID_45_" x="120.1" y="288" width="371.8" height="216"/>
			</defs>
			<clipPath id="SVGID_46_">
				<use xlink:href="#SVGID_45_"  style="overflow:visible;"/>
			</clipPath>
			<g class="st26">
				<text transform="matrix(1 0 0 1 126.7109 356.1484)" class="st10 st11 st12">35,000</text>
			</g>
		</g>
	</g>
	<g>
		<defs>
			<polygon id="SVGID_47_" points="120.1,504 491.9,504 491.9,288 120.1,288 120.1,504 			"/>
		</defs>
		<clipPath id="SVGID_48_">
			<use xlink:href="#SVGID_47_"  style="overflow:visible;"/>
		</clipPath>
		<g class="st27">
			<defs>
				<rect id="SVGID_49_" x="120.1" y="288" width="371.8" height="216"/>
			</defs>
			<clipPath id="SVGID_50_">
				<use xlink:href="#SVGID_49_"  style="overflow:visible;"/>
			</clipPath>
			<g class="st28">
				<text transform="matrix(1 0 0 1 126.7109 337.9766)" class="st10 st11 st12">40,000</text>
			</g>
		</g>
	</g>
	<g>
		<defs>
			<polygon id="SVGID_51_" points="120.1,504 491.9,504 491.9,288 120.1,288 120.1,504 			"/>
		</defs>
		<clipPath id="SVGID_52_">
			<use xlink:href="#SVGID_51_"  style="overflow:visible;"/>
		</clipPath>
		<g class="st29">
			<defs>
				<rect id="SVGID_53_" x="120.1" y="288" width="371.8" height="216"/>
			</defs>
			<clipPath id="SVGID_54_">
				<use xlink:href="#SVGID_53_"  style="overflow:visible;"/>
			</clipPath>
			<g class="st30">
				<text transform="matrix(1 0 0 1 126.7109 319.7969)" class="st10 st11 st12">45,000</text>
			</g>
		</g>
	</g>
	<g>
		<defs>
			<polygon id="SVGID_55_" points="120.1,504 491.9,504 491.9,288 120.1,288 120.1,504 			"/>
		</defs>
		<clipPath id="SVGID_56_">
			<use xlink:href="#SVGID_55_"  style="overflow:visible;"/>
		</clipPath>
		<g class="st31">
			<defs>
				<rect id="SVGID_57_" x="120.1" y="288" width="371.8" height="216"/>
			</defs>
			<clipPath id="SVGID_58_">
				<use xlink:href="#SVGID_57_"  style="overflow:visible;"/>
			</clipPath>
			<g class="st32">
				<text transform="matrix(1 0 0 1 126.7109 301.6094)" class="st10 st11 st12">50,000</text>
			</g>
		</g>
	</g>
	<g>
		<defs>
			<polygon id="SVGID_59_" points="120.1,504 491.9,504 491.9,288 120.1,288 120.1,504 			"/>
		</defs>
		<clipPath id="SVGID_60_">
			<use xlink:href="#SVGID_59_"  style="overflow:visible;"/>
		</clipPath>
		<g class="st33">
			<defs>
				<rect id="SVGID_61_" x="120.1" y="288" width="371.8" height="216"/>
			</defs>
			<clipPath id="SVGID_62_">
				<use xlink:href="#SVGID_61_"  style="overflow:visible;"/>
			</clipPath>
			<g class="st34">
				<text transform="matrix(1 0 0 1 174.3984 495.1172)" class="st10 st11 st12">2018</text>
			</g>
		</g>
	</g>
	<g>
		<defs>
			<polygon id="SVGID_63_" points="120.1,504 491.9,504 491.9,288 120.1,288 120.1,504 			"/>
		</defs>
		<clipPath id="SVGID_64_">
			<use xlink:href="#SVGID_63_"  style="overflow:visible;"/>
		</clipPath>
		<g class="st35">
			<defs>
				<rect id="SVGID_65_" x="120.1" y="288" width="371.8" height="216"/>
			</defs>
			<clipPath id="SVGID_66_">
				<use xlink:href="#SVGID_65_"  style="overflow:visible;"/>
			</clipPath>
			<g class="st36">
				<text transform="matrix(1 0 0 1 225.7109 495.1172)" class="st10 st11 st12">2019</text>
			</g>
		</g>
	</g>
	<g>
		<defs>
			<polygon id="SVGID_67_" points="120.1,504 491.9,504 491.9,288 120.1,288 120.1,504 			"/>
		</defs>
		<clipPath id="SVGID_68_">
			<use xlink:href="#SVGID_67_"  style="overflow:visible;"/>
		</clipPath>
		<g class="st37">
			<defs>
				<rect id="SVGID_69_" x="120.1" y="288" width="371.8" height="216"/>
			</defs>
			<clipPath id="SVGID_70_">
				<use xlink:href="#SVGID_69_"  style="overflow:visible;"/>
			</clipPath>
			<g class="st38">
				<text transform="matrix(1 0 0 1 277.0156 495.1172)" class="st10 st11 st12">2020</text>
			</g>
		</g>
	</g>
	<g>
		<defs>
			<polygon id="SVGID_71_" points="120.1,504 491.9,504 491.9,288 120.1,288 120.1,504 			"/>
		</defs>
		<clipPath id="SVGID_72_">
			<use xlink:href="#SVGID_71_"  style="overflow:visible;"/>
		</clipPath>
		<g class="st39">
			<defs>
				<rect id="SVGID_73_" x="120.1" y="288" width="371.8" height="216"/>
			</defs>
			<clipPath id="SVGID_74_">
				<use xlink:href="#SVGID_73_"  style="overflow:visible;"/>
			</clipPath>
			<g class="st40">
				<text transform="matrix(1 0 0 1 328.3281 495.1172)" class="st10 st11 st12">2021</text>
			</g>
		</g>
	</g>
	<g>
		<defs>
			<polygon id="SVGID_75_" points="120.1,504 491.9,504 491.9,288 120.1,288 120.1,504 			"/>
		</defs>
		<clipPath id="SVGID_76_">
			<use xlink:href="#SVGID_75_"  style="overflow:visible;"/>
		</clipPath>
		<line class="st41" x1="378.8" y1="362.4" x2="398" y2="362.4"/>
	</g>
	<g>
		<defs>
			<polygon id="SVGID_77_" points="120.1,504 491.9,504 491.9,288 120.1,288 120.1,504 			"/>
		</defs>
		<clipPath id="SVGID_78_">
			<use xlink:href="#SVGID_77_"  style="overflow:visible;"/>
		</clipPath>
		<g class="st42">
			<defs>
				<rect id="SVGID_79_" x="120.1" y="288" width="371.8" height="216"/>
			</defs>
			<clipPath id="SVGID_80_">
				<use xlink:href="#SVGID_79_"  style="overflow:visible;"/>
			</clipPath>
			<g class="st43">
				<text transform="matrix(1 0 0 1 399.9766 364.8594)"><tspan x="0" y="0" class="st10 st11 st12">E</tspan><tspan x="4.4" y="0" class="st10 st11 st12">u</tspan><tspan x="9.1" y="0" class="st10 st11 st12">r</tspan><tspan x="12.3" y="0" class="st10 st11 st12">o</tspan><tspan x="17" y="0" class="st10 st11 st12">p</tspan><tspan x="21.7" y="0" class="st10 st11 st12">e</tspan><tspan x="26.3" y="0" class="st10 st11 st12">a</tspan><tspan x="30.5" y="0" class="st10 st11 st12">n</tspan><tspan x="35.3" y="0" class="st10 st11 st12"> C</tspan><tspan x="42.1" y="0" class="st10 st11 st12">o</tspan><tspan x="46.8" y="0" class="st10 st11 st12">mm</tspan><tspan x="61.2" y="0" class="st10 st11 st12">i</tspan><tspan x="63.2" y="0" class="st10 st11 st12">s</tspan><tspan x="66.8" y="0" class="st10 st11 st12">s</tspan><tspan x="70.3" y="0" class="st10 st11 st12">i</tspan><tspan x="72.4" y="0" class="st10 st11 st12">o</tspan><tspan x="77.2" y="0" class="st10 st11 st12">n</tspan></text>
			</g>
		</g>
	</g>
	<g>
		<defs>
			<polygon id="SVGID_81_" points="120.1,504 491.9,504 491.9,288 120.1,288 120.1,504 			"/>
		</defs>
		<clipPath id="SVGID_82_">
			<use xlink:href="#SVGID_81_"  style="overflow:visible;"/>
		</clipPath>
		<line class="st44" x1="378.8" y1="379.2" x2="398" y2="379.2"/>
	</g>
	<g>
		<defs>
			<polygon id="SVGID_83_" points="120.1,504 491.9,504 491.9,288 120.1,288 120.1,504 			"/>
		</defs>
		<clipPath id="SVGID_84_">
			<use xlink:href="#SVGID_83_"  style="overflow:visible;"/>
		</clipPath>
		<g class="st45">
			<defs>
				<rect id="SVGID_85_" x="120.1" y="288" width="371.8" height="216"/>
			</defs>
			<clipPath id="SVGID_86_">
				<use xlink:href="#SVGID_85_"  style="overflow:visible;"/>
			</clipPath>
			<g class="st46">
				<text transform="matrix(1 0 0 1 399.9766 381.7344)"><tspan x="0" y="0" class="st10 st11 st12">N</tspan><tspan x="5.8" y="0" class="st10 st11 st12">I</tspan><tspan x="8" y="0" class="st10 st11 st12">H</tspan></text>
			</g>
		</g>
	</g>
	<g>
		<defs>
			<polygon id="SVGID_87_" points="120.1,504 491.9,504 491.9,288 120.1,288 120.1,504 			"/>
		</defs>
		<clipPath id="SVGID_88_">
			<use xlink:href="#SVGID_87_"  style="overflow:visible;"/>
		</clipPath>
		<line class="st47" x1="378.8" y1="396.1" x2="398" y2="396.1"/>
	</g>
	<g>
		<defs>
			<polygon id="SVGID_89_" points="120.1,504 491.9,504 491.9,288 120.1,288 120.1,504 			"/>
		</defs>
		<clipPath id="SVGID_90_">
			<use xlink:href="#SVGID_89_"  style="overflow:visible;"/>
		</clipPath>
		<g class="st48">
			<defs>
				<rect id="SVGID_91_" x="120.1" y="288" width="371.8" height="216"/>
			</defs>
			<clipPath id="SVGID_92_">
				<use xlink:href="#SVGID_91_"  style="overflow:visible;"/>
			</clipPath>
			<g class="st49">
				<text transform="matrix(1 0 0 1 399.9766 398.6094)"><tspan x="0" y="0" class="st10 st11 st12">N</tspan><tspan x="5.8" y="0" class="st10 st11 st12">S</tspan><tspan x="10" y="0" class="st10 st11 st12">F</tspan><tspan x="14" y="0" class="st10 st11 st12">C</tspan></text>
			</g>
		</g>
	</g>
	<g>
		<defs>
			<polygon id="SVGID_93_" points="120.1,504 491.9,504 491.9,288 120.1,288 120.1,504 			"/>
		</defs>
		<clipPath id="SVGID_94_">
			<use xlink:href="#SVGID_93_"  style="overflow:visible;"/>
		</clipPath>
		<line class="st50" x1="378.8" y1="413" x2="398" y2="413"/>
	</g>
	<g>
		<defs>
			<polygon id="SVGID_95_" points="120.1,504 491.9,504 491.9,288 120.1,288 120.1,504 			"/>
		</defs>
		<clipPath id="SVGID_96_">
			<use xlink:href="#SVGID_95_"  style="overflow:visible;"/>
		</clipPath>
		<g class="st51">
			<defs>
				<rect id="SVGID_97_" x="120.1" y="288" width="371.8" height="216"/>
			</defs>
			<clipPath id="SVGID_98_">
				<use xlink:href="#SVGID_97_"  style="overflow:visible;"/>
			</clipPath>
			<g class="st52">
				<text transform="matrix(1 0 0 1 399.9766 415.4844)"><tspan x="0" y="0" class="st10 st11 st12">N</tspan><tspan x="5.8" y="0" class="st10 st11 st12">CI</tspan></text>
			</g>
		</g>
	</g>
	<g>
		<defs>
			<polygon id="SVGID_99_" points="120.1,504 491.9,504 491.9,288 120.1,288 120.1,504 			"/>
		</defs>
		<clipPath id="SVGID_100_">
			<use xlink:href="#SVGID_99_"  style="overflow:visible;"/>
		</clipPath>
		<line class="st53" x1="378.8" y1="429.8" x2="398" y2="429.8"/>
	</g>
	<g>
		<defs>
			<polygon id="SVGID_101_" points="120.1,504 491.9,504 491.9,288 120.1,288 120.1,504 			"/>
		</defs>
		<clipPath id="SVGID_102_">
			<use xlink:href="#SVGID_101_"  style="overflow:visible;"/>
		</clipPath>
		<g class="st54">
			<defs>
				<rect id="SVGID_103_" x="120.1" y="288" width="371.8" height="216"/>
			</defs>
			<clipPath id="SVGID_104_">
				<use xlink:href="#SVGID_103_"  style="overflow:visible;"/>
			</clipPath>
			<g class="st55">
				<text transform="matrix(1 0 0 1 399.9766 432.3594)"><tspan x="0" y="0" class="st10 st11 st12">H</tspan><tspan x="5.6" y="0" class="st10 st11 st12">H</tspan><tspan x="11.2" y="0" class="st10 st11 st12">S</tspan></text>
			</g>
		</g>
	</g>
	<text transform="matrix(1 0 0 1 197.5 512)" class="st56 st57">Publication year</text>
	<text transform="matrix(4.245646e-07 -1 1 4.245646e-07 116.1453 446.2457)" class="st56 st57">The number of funded papers</text>
</g>
</svg>
