<svg id="图层_1" data-name="图层 1" xmlns="http://www.w3.org/2000/svg" xmlns:xlink="http://www.w3.org/1999/xlink" viewBox="0 0 960 3679.9"><defs><style>.cls-1,.cls-4,.cls-7{fill:none;}.cls-2{clip-path:url(#clip-path);}.cls-3{fill:#fff;}.cls-4{stroke:#000;stroke-miterlimit:10;stroke-opacity:0;stroke-width:0.14px;}.cls-5{clip-path:url(#clip-path-6);}.cls-6,.cls-9{fill:#084384;}.cls-7{stroke:#d9d9d9;stroke-linejoin:round;stroke-width:0.75px;}.cls-8{clip-path:url(#clip-path-9);}.cls-10,.cls-14,.cls-15,.cls-17,.cls-18,.cls-19,.cls-21,.cls-23,.cls-25,.cls-28,.cls-30,.cls-39,.cls-9{isolation:isolate;}.cls-10,.cls-14,.cls-15,.cls-21,.cls-28,.cls-9{font-size:9px;}.cls-10,.cls-14,.cls-15,.cls-17,.cls-19,.cls-23,.cls-25,.cls-30,.cls-39,.cls-9{font-family:Calibri, Calibri;}.cls-10{fill:#595959;}.cls-11{clip-path:url(#clip-path-40);}.cls-12,.cls-14{fill:#8faadc;}.cls-13{clip-path:url(#clip-path-41);}.cls-16{clip-path:url(#clip-path-69);}.cls-17{font-size:18px;}.cls-19{font-size:18.02px;}.cls-20,.cls-21{fill:#42a6cb;}.cls-21,.cls-28{font-family:Calibri-Bold, Calibri;font-weight:700;}.cls-22{clip-path:url(#clip-path-81);}.cls-23,.cls-25,.cls-30{font-size:10.56px;}.cls-23,.cls-25{fill:#0d0d0d;}.cls-24{letter-spacing:-0.01em;}.cls-25{letter-spacing:-0.01em;}.cls-26{letter-spacing:0em;}.cls-27,.cls-28{fill:#77cac5;}.cls-29{clip-path:url(#clip-path-107);}.cls-31{letter-spacing:0em;}.cls-32{letter-spacing:-0.01em;}.cls-33{letter-spacing:-0.09em;}.cls-34{letter-spacing:-0.06em;}.cls-35{letter-spacing:-0.01em;}.cls-36{letter-spacing:-0.06em;}.cls-37{letter-spacing:-0.01em;}.cls-38{letter-spacing:-0.01em;}.cls-39{font-size:10.58px;}</style><clipPath id="clip-path" transform="translate(0 3139.9)"><rect class="cls-1" width="960" height="540"/></clipPath><clipPath id="clip-path-6" transform="translate(0 3139.9)"><rect class="cls-1" x="170.2" y="34.3" width="273.1" height="138.4"/></clipPath><clipPath id="clip-path-9" transform="translate(0 3139.9)"><rect class="cls-1" x="132.5" y="23.3" width="321.1" height="171.8"/></clipPath><clipPath id="clip-path-40" transform="translate(0 3139.9)"><rect class="cls-1" x="437.9" y="34.7" width="282.6" height="137.8"/></clipPath><clipPath id="clip-path-41" transform="translate(0 3139.9)"><rect class="cls-1" x="427" y="23.6" width="321.2" height="171.2"/></clipPath><clipPath id="clip-path-69" transform="translate(0 3139.9)"><rect class="cls-1" x="4" y="7" width="960" height="540"/></clipPath><clipPath id="clip-path-81" transform="translate(0 3139.9)"><rect class="cls-1" x="133.6" y="216.1" width="307.4" height="216.7"/></clipPath><clipPath id="clip-path-107" transform="translate(0 3139.9)"><rect class="cls-1" x="414.7" y="225.2" width="346.4" height="269"/></clipPath></defs><title>Figure 4.  Number of organs experts work on (top) and number of papers per organ (bottom)</title><g class="cls-2"><g class="cls-2"><rect class="cls-3" y="3139.9" width="960" height="540"/></g><g class="cls-2"><rect class="cls-4" x="132.6" y="3163.3" width="321.1" height="171.7"/></g><g class="cls-2"><rect class="cls-3" x="170.2" y="3174.3" width="272.4" height="137.5"/></g><g class="cls-2"><g class="cls-5"><path class="cls-6" d="M427.7,170.8h7.2V172h-7.2ZM405,169.4h7.1v2.5H405Zm-22.7-1.9h7.1v4.4h-7.1Zm-22.7-2.9h7.1v7.3h-7.1ZM337,159.7h7.1V172H337Zm-22.8-7.3h7.2V172h-7.2Zm-22.7-14.2h7.2V172h-7.2Zm-22.7-26.6h7.1V172h-7.1ZM246.1,52.7h7.1V172h-7.1ZM223.4-110.5h7.1V172h-7.1Zm-22.6-552h7.1V172h-7.1ZM178-3139.9h7.2V172H178Z" transform="translate(0 3139.9)"/></g><g class="cls-2"><line class="cls-7" x1="170.2" y1="3311.9" x2="442.6" y2="3311.9"/></g><g class="cls-2"><g class="cls-8"><text class="cls-9" transform="translate(150.2 3314.43)">500</text></g><g class="cls-2"><g class="cls-8"><text class="cls-9" transform="translate(143.64 3300.32)">2,500</text></g><g class="cls-2"><g class="cls-8"><text class="cls-9" transform="translate(143.64 3286.2)">4,500</text></g><g class="cls-2"><g class="cls-8"><text class="cls-9" transform="translate(143.64 3272.09)">6,500</text></g><g class="cls-2"><g class="cls-8"><text class="cls-9" transform="translate(143.64 3257.98)">8,500</text></g><g class="cls-2"><g class="cls-8"><text class="cls-9" transform="translate(139.08 3243.87)">10,500</text></g><g class="cls-2"><g class="cls-8"><text class="cls-9" transform="translate(139.08 3229.76)">12,500</text></g><g class="cls-2"><g class="cls-8"><text class="cls-9" transform="translate(139.08 3215.64)">14,500</text></g><g class="cls-2"><g class="cls-8"><text class="cls-9" transform="translate(139.08 3201.53)">16,500</text></g><g class="cls-2"><g class="cls-8"><text class="cls-9" transform="translate(139.08 3187.42)">18,500</text></g><g class="cls-2"><text class="cls-10" transform="translate(179.3 3326.12)">1</text><g class="cls-8"><text class="cls-10" transform="translate(202.01 3326.12)">2</text></g><g class="cls-8"><text class="cls-10" transform="translate(224.71 3326.12)">3</text></g><g class="cls-8"><text class="cls-10" transform="translate(247.42 3326.12)">4</text></g><g class="cls-8"><text class="cls-10" transform="translate(270.12 3326.12)">5</text></g><g class="cls-8"><text class="cls-10" transform="translate(292.82 3326.12)">6</text></g><g class="cls-8"><text class="cls-10" transform="translate(315.53 3326.12)">7</text></g><g class="cls-8"><text class="cls-10" transform="translate(338.23 3326.12)">8</text></g><g class="cls-8"><text class="cls-10" transform="translate(360.94 3326.12)">9</text></g><g class="cls-8"><text class="cls-10" transform="translate(381.36 3326.12)">10</text></g><g class="cls-8"><text class="cls-10" transform="translate(404.06 3326.12)">11</text></g><g class="cls-8"><text class="cls-10" transform="translate(426.77 3326.12)">12</text></g><rect class="cls-4" x="427" y="3163.7" width="321.3" height="171.2"/><g class="cls-11"><path class="cls-12" d="M707.4,170.4h5.9v1.3h-5.9Zm-18.7-.2h5.9v1.6h-5.9Zm-18.9-.4h5.9v1.9h-5.9Zm-18.7-4.3H657v6.2h-5.9Zm-18.8-.6h5.9v6.8h-5.9ZM613.4,161h6v10.7h-6Zm-18.7-6h5.9v16.7h-5.9Zm-18.8-4.9h5.9v21.6h-5.9Zm-18.7-9.6h5.9v31.2h-5.9Zm-18.9-7.7h5.9v38.9h-5.9Zm-18.7-13.4h5.9v52.3h-5.9Zm-18.8-10.9h5.9v63.2h-5.9ZM482,81.8h5.9v89.9H482ZM463.2,70.9h5.9V171.7h-5.9ZM444.5,34.4h5.9V171.7h-5.9Z" transform="translate(0 3139.9)"/></g><line class="cls-7" x1="438" y1="3311.6" x2="719.8" y2="3311.6"/><g class="cls-13"><text class="cls-14" transform="translate(728.21 3314.24)">0</text></g><g class="cls-13"><text class="cls-14" transform="translate(728.21 3300.53)">50</text></g><g class="cls-13"><text class="cls-14" transform="translate(728.21 3286.83)">100</text></g><g class="cls-13"><text class="cls-14" transform="translate(728.21 3273.12)">150</text></g><g class="cls-13"><text class="cls-14" transform="translate(728.21 3259.42)">200</text></g><g class="cls-13"><text class="cls-14" transform="translate(728.21 3245.72)">250</text></g><g class="cls-13"><text class="cls-14" transform="translate(728.21 3232.01)">300</text></g><g class="cls-13"><text class="cls-14" transform="translate(728.21 3218.31)">350</text></g><g class="cls-13"><text class="cls-14" transform="translate(728.21 3204.6)">400</text></g><g class="cls-13"><text class="cls-14" transform="translate(728.21 3190.9)">450</text></g><g class="cls-13"><text class="cls-14" transform="translate(728.21 3177.2)">500</text></g><g class="cls-13"><text class="cls-10" transform="translate(442.87 3325.95)">13</text></g><g class="cls-13"><text class="cls-10" transform="translate(461.66 3325.95)">14</text></g><g class="cls-13"><text class="cls-10" transform="translate(480.46 3325.95)">15</text></g><g class="cls-13"><text class="cls-10" transform="translate(499.25 3325.95)">16</text></g><g class="cls-13"><text class="cls-10" transform="translate(518.02 3325.95)">17</text></g><g class="cls-13"><text class="cls-10" transform="translate(536.81 3325.95)">18</text></g><g class="cls-13"><text class="cls-10" transform="translate(555.6 3325.95)">19</text></g><g class="cls-13"><text class="cls-10" transform="translate(574.39 3325.95)">20</text></g><g class="cls-13"><text class="cls-10" transform="translate(593.18 3325.95)">21</text></g><g class="cls-13"><text class="cls-10" transform="translate(611.98 3325.95)">22</text></g><g class="cls-13"><text class="cls-10" transform="translate(630.74 3325.95)">23</text></g><g class="cls-13"><text class="cls-10" transform="translate(649.54 3325.95)">24</text></g><g class="cls-13"><text class="cls-10" transform="translate(668.33 3325.95)">25</text></g><g class="cls-13"><text class="cls-10" transform="translate(687.12 3325.95)">26</text></g><g class="cls-13"><text class="cls-10" transform="translate(705.91 3325.95)">27</text></g><g class="cls-2"><text class="cls-15" transform="translate(159.26 3171.08)">470,014</text></g><g class="cls-2"><text class="cls-15" transform="translate(195.46 3170.96)">118,795</text></g><g class="cls-16"><text class="cls-15" transform="translate(237.18 3188.68)">40,544</text></g><g class="cls-2"><text class="cls-15" transform="translate(440.78 3170.76)">501</text></g><g class="cls-2"><text class="cls-17" transform="translate(124.03 3161.84) rotate(-90)">s</text><text class="cls-17" transform="translate(124.03 3167.77) rotate(-90)">r</text><text class="cls-17" transform="translate(124.03 3177.25) rotate(-90)">o</text><text class="cls-17" transform="translate(124.03 3186.7) rotate(-90)">h</text><text class="cls-17" transform="translate(124.03 3192.73) rotate(-90)">t</text><text class="cls-17" transform="translate(124.03 3202.18) rotate(-90)">u</text><text class="cls-17" transform="translate(124.03 3210.81) rotate(-90)">a</text><text class="cls-17" transform="translate(124.03 3215.02) rotate(-90)"> </text><text class="cls-17" transform="translate(124.03 3220.51) rotate(-90)">f</text><text class="cls-17" transform="translate(124.03 3229.99) rotate(-90)">o</text><text class="cls-17" transform="translate(124.03 3234.13) rotate(-90)"> </text><text class="cls-17" transform="translate(124.03 3240.41) rotate(-90)">r</text><text class="cls-17" transform="translate(124.03 3249.45) rotate(-90)">e</text><text class="cls-17" transform="translate(124.03 3258.9) rotate(-90)">b</text><text class="cls-17" transform="translate(124.03 3273.28) rotate(-90)">m</text><text class="cls-17" transform="translate(124.03 3282.79) rotate(-90)">u</text><text class="cls-17" transform="translate(124.03 3292.24) rotate(-90)">n</text><text class="cls-17" transform="translate(124.03 3296.3) rotate(-90)"> </text><text class="cls-17" transform="translate(124.03 3305.31) rotate(-90)">e</text><text class="cls-17" transform="translate(124.03 3314.75) rotate(-90)">h</text><text class="cls-17" transform="translate(124.03 3323.52) rotate(-90)">T</text></g><g class="cls-2"><g class="cls-18"><text class="cls-17" transform="translate(764.78 3326.43) rotate(-90)">Th</text><text class="cls-17" transform="translate(764.78 3308.23) rotate(-90)">e</text><text class="cls-17" transform="translate(764.78 3299.23) rotate(-90)"><tspan xml:space="preserve"> n</tspan></text><text class="cls-17" transform="translate(764.78 3285.73) rotate(-90)">u</text><text class="cls-17" transform="translate(764.78 3276.23) rotate(-90)">mb</text><text class="cls-17" transform="translate(764.78 3252.33) rotate(-90)">e</text><text class="cls-17" transform="translate(764.78 3243.33) rotate(-90)">r</text><text class="cls-17" transform="translate(764.78 3237.03) rotate(-90)"> </text><text class="cls-17" transform="translate(764.78 3232.93) rotate(-90)">of</text><text class="cls-17" transform="translate(764.78 3217.93) rotate(-90)"> </text><text class="cls-17" transform="translate(764.78 3213.73) rotate(-90)">autho</text><text class="cls-17" transform="translate(764.78 3170.73) rotate(-90)">r</text><text class="cls-17" transform="translate(764.78 3164.73) rotate(-90)">s</text></g></g></g><g class="cls-2"><g class="cls-18"><text class="cls-17" transform="translate(318.89 3347.38)">Th</text><text class="cls-17" transform="translate(337.09 3347.38)">e</text><text class="cls-17" transform="translate(346.09 3347.38)"><tspan xml:space="preserve"> n</tspan></text><text class="cls-17" transform="translate(359.59 3347.38)">u</text><text class="cls-17" transform="translate(369.09 3347.38)">mb</text><text class="cls-17" transform="translate(392.99 3347.38)">e</text><text class="cls-17" transform="translate(401.99 3347.38)">r</text><text class="cls-17" transform="translate(408.29 3347.38)"> </text><text class="cls-17" transform="translate(412.39 3347.38)">of</text><text class="cls-17" transform="translate(427.39 3347.38)"> </text><text class="cls-17" transform="translate(431.59 3347.38)">o</text><text class="cls-17" transform="translate(441.09 3347.38)">r</text><text class="cls-17" transform="translate(447.09 3347.38)">g</text><text class="cls-17" transform="translate(455.19 3347.38)">an</text><text class="cls-17" transform="translate(473.29 3347.38)">s</text><text class="cls-17" transform="translate(480.39 3347.38)"><tspan xml:space="preserve"> w</tspan></text><text class="cls-17" transform="translate(497.39 3347.38)">i</text><text class="cls-17" transform="translate(501.39 3347.38)">th</text><text class="cls-17" transform="translate(516.89 3347.38)"> </text><text class="cls-17" transform="translate(521.09 3347.38)">autho</text><text class="cls-17" transform="translate(564.09 3347.38)">r</text><text class="cls-17" transform="translate(570.09 3347.38)">s</text></g></g><g class="cls-2"><text class="cls-19" transform="matrix(0, -1, 1, 0, 129.13, 3374.64)">s</text><text class="cls-19" transform="matrix(0, -1, 1, 0, 129.13, 3380.55)">r</text><text class="cls-19" transform="matrix(0, -1, 1, 0, 129.13, 3389.6)">e</text><text class="cls-19" transform="matrix(0, -1, 1, 0, 129.13, 3399.06)">p</text><text class="cls-19" transform="matrix(0, -1, 1, 0, 129.13, 3407.75)">a</text><text class="cls-19" transform="matrix(0, -1, 1, 0, 129.13, 3417.21)">p</text><text class="cls-19" transform="matrix(0, -1, 1, 0, 129.13, 3421.47)"> </text><text class="cls-19" transform="matrix(0, -1, 1, 0, 129.13, 3426.96)">f</text><text class="cls-19" transform="matrix(0, -1, 1, 0, 129.13, 3436.46)">o</text><text class="cls-19" transform="matrix(0, -1, 1, 0, 129.13, 3440.64)"> </text><text class="cls-19" transform="matrix(0, -1, 1, 0, 129.13, 3446.93)">r</text><text class="cls-19" transform="matrix(0, -1, 1, 0, 129.13, 3455.98)">e</text><text class="cls-19" transform="matrix(0, -1, 1, 0, 129.13, 3465.44)">b</text><text class="cls-19" transform="matrix(0, -1, 1, 0, 129.13, 3479.9)">m</text><text class="cls-19" transform="matrix(0, -1, 1, 0, 129.13, 3489.36)">u</text><text class="cls-19" transform="matrix(0, -1, 1, 0, 129.13, 3498.88)">n</text><text class="cls-19" transform="matrix(0, -1, 1, 0, 129.13, 3502.95)"> </text><text class="cls-19" transform="matrix(0, -1, 1, 0, 129.13, 3512)">e</text><text class="cls-19" transform="matrix(0, -1, 1, 0, 129.13, 3521.46)">h</text><text class="cls-19" transform="matrix(0, -1, 1, 0, 129.13, 3530.24)">T</text><g class="cls-2"><g class="cls-18"><text class="cls-17" transform="translate(782.98 3522.84) rotate(-90)">Th</text><text class="cls-17" transform="translate(782.98 3504.64) rotate(-90)">e</text><text class="cls-17" transform="translate(782.98 3495.64) rotate(-90)"><tspan xml:space="preserve"> n</tspan></text><text class="cls-17" transform="translate(782.98 3482.14) rotate(-90)">u</text><text class="cls-17" transform="translate(782.98 3472.64) rotate(-90)">mb</text><text class="cls-17" transform="translate(782.98 3448.74) rotate(-90)">e</text><text class="cls-17" transform="translate(782.98 3439.74) rotate(-90)">r</text><text class="cls-17" transform="translate(782.98 3433.44) rotate(-90)"> </text><text class="cls-17" transform="translate(782.98 3429.34) rotate(-90)">of</text><text class="cls-17" transform="translate(782.98 3414.34) rotate(-90)"> </text><text class="cls-17" transform="translate(782.98 3410.14) rotate(-90)">pa</text><text class="cls-17" transform="translate(782.98 3392.04) rotate(-90)">p</text><text class="cls-17" transform="translate(782.98 3382.54) rotate(-90)">e</text><text class="cls-17" transform="translate(782.98 3373.64) rotate(-90)">r</text><text class="cls-17" transform="translate(782.98 3367.74) rotate(-90)">s</text></g></g></g><g class="cls-2"><g class="cls-18"><text class="cls-17" transform="translate(419.4 3612.17)">o</text><text class="cls-17" transform="translate(428.9 3612.17)">r</text><text class="cls-17" transform="translate(434.9 3612.17)">g</text><text class="cls-17" transform="translate(443.1 3612.17)">ans</text></g></g><g class="cls-2"><rect class="cls-4" x="133.6" y="3356" width="307.4" height="216.8"/></g><g class="cls-2"><path class="cls-20" d="M419.4,358.6h5v7.2h-5Zm-16.2-.9h5v8h-5ZM387,356.2h5v9.6h-5Zm-16.2-2.7H376v12.2h-5.2Zm-16.1-2.9h5v15.1h-5Zm-16.2-.1h5v15.2h-5Zm-16.2-3.2h5v18.5h-5Zm-16.2-2.1h5.2v20.5h-5.2ZM290,339.6h5v26.2h-5Zm-16.2-8h5v34.2h-5Zm-16.2-2.1h5v36.2h-5Zm-16.2-12.9h5v49.2h-5Zm-16.2-15.2h5.2v64.3h-5.2Zm-16-2.1h5v66.5h-5ZM193,280.7h5v85.1h-5Zm-16.2-35.8h5V365.7h-5Z" transform="translate(0 3139.9)"/></g><g class="cls-2"><line class="cls-7" x1="171.2" y1="3505.7" x2="430" y2="3505.7"/></g><g class="cls-2"><text class="cls-21" transform="translate(158.33 3508.23)">0</text><g class="cls-22"><text class="cls-21" transform="translate(140.09 3485.12)">10,000</text></g><g class="cls-22"><text class="cls-21" transform="translate(140.09 3462.03)">20,000</text></g><g class="cls-22"><text class="cls-21" transform="translate(140.09 3438.92)">30,000</text></g><g class="cls-22"><text class="cls-21" transform="translate(140.09 3415.83)">40,000</text></g><g class="cls-22"><text class="cls-21" transform="translate(140.09 3392.72)">50,000</text></g><g class="cls-22"><text class="cls-21" transform="translate(140.09 3369.63)">60,000</text></g><g class="cls-22"><g class="cls-18"><text class="cls-23" transform="translate(182.88 3532.8) rotate(-90)">Li</text><text class="cls-23" transform="translate(182.88 3525.9) rotate(-90)">v</text><text class="cls-23" transform="translate(182.88 3521.3) rotate(-90)">er</text></g></g></g><g class="cls-2"><g class="cls-18"><text class="cls-23" transform="translate(199.06 3534.68) rotate(-90)">B</text><text class="cls-23" transform="translate(199.06 3528.98) rotate(-90)">r</text><text class="cls-23" transform="translate(199.06 3525.28) rotate(-90)">a</text><text class="cls-23" transform="translate(199.06 3520.28) rotate(-90)">i</text><text class="cls-23" transform="translate(199.06 3517.88) rotate(-90)">n</text></g></g><g class="cls-2"><g class="cls-18"><text class="cls-23" transform="translate(215.23 3532.73) rotate(-90)">Lu</text><text class="cls-23" transform="translate(215.23 3522.73) rotate(-90)">n</text><text class="cls-23" transform="translate(215.23 3517.23) rotate(-90)">g</text></g></g><g class="cls-2"><g class="cls-18"><text class="cls-23" transform="translate(231.41 3539.6) rotate(-90)">B</text><text class="cls-23" transform="translate(231.41 3533.9) rotate(-90)">r</text><text class="cls-23" transform="translate(231.41 3530.2) rotate(-90)">ea</text><text class="cls-23" transform="translate(231.41 3519.9) rotate(-90)">s</text><text class="cls-23" transform="translate(231.41 3515.8) rotate(-90)">t</text></g></g><g class="cls-2"><g class="cls-18"><text class="cls-23" transform="translate(247.58 3536.33) rotate(-90)">H</text><text class="cls-23" transform="translate(247.58 3529.73) rotate(-90)">e</text><text class="cls-23" transform="translate(247.58 3524.53) rotate(-90)">a</text><text class="cls-23" transform="translate(247.58 3519.53) rotate(-90)">r</text><text class="cls-23" transform="translate(247.58 3515.93) rotate(-90)">t</text></g></g><g class="cls-2"><g class="cls-18"><text class="cls-23" transform="translate(263.76 3541.23) rotate(-90)">K</text><text class="cls-23" transform="translate(263.76 3535.83) rotate(-90)">i</text><text class="cls-23" transform="translate(263.76 3533.33) rotate(-90)">d</text><text class="cls-23" transform="translate(263.76 3527.73) rotate(-90)">n</text><text class="cls-23" transform="translate(263.76 3522.43) rotate(-90)"><tspan class="cls-24">e</tspan><tspan x="5.19" y="0">y</tspan></text></g></g><g class="cls-2"><g class="cls-18"><text class="cls-23" transform="translate(279.94 3529.88) rotate(-90)">S</text><text class="cls-23" transform="translate(279.94 3525.08) rotate(-90)">k</text><text class="cls-23" transform="translate(279.94 3520.28) rotate(-90)">i</text><text class="cls-23" transform="translate(279.94 3517.88) rotate(-90)">n</text></g></g><g class="cls-2"><g class="cls-18"><text class="cls-23" transform="translate(296.11 3548.38) rotate(-90)">P</text><text class="cls-23" transform="translate(296.11 3542.98) rotate(-90)">r</text><text class="cls-23" transform="translate(296.11 3539.28) rotate(-90)">o</text><text class="cls-23" transform="translate(296.11 3533.78) rotate(-90)">s</text><text class="cls-23" transform="translate(296.11 3529.68) rotate(-90)">t</text><text class="cls-23" transform="translate(296.11 3526.18) rotate(-90)">a</text><text class="cls-23" transform="translate(296.11 3521.08) rotate(-90)">t</text><text class="cls-23" transform="translate(296.11 3517.58) rotate(-90)">e</text></g></g><g class="cls-2"><g class="cls-18"><text class="cls-23" transform="translate(312.29 3527.45) rotate(-90)">E</text><text class="cls-23" transform="translate(312.29 3522.25) rotate(-90)">y</text><text class="cls-23" transform="translate(312.29 3517.55) rotate(-90)">e</text></g></g><g class="cls-2"><g class="cls-18"><text class="cls-23" transform="translate(328.46 3545.79) rotate(-90)">Sk</text><text class="cls-23" transform="translate(328.46 3536.09) rotate(-90)">e</text><text class="cls-23" transform="translate(328.46 3530.89) rotate(-90)">l</text><text class="cls-23" transform="translate(328.46 3528.39) rotate(-90)">e</text><text class="cls-23" transform="translate(328.46 3523.29) rotate(-90)">t</text><text class="cls-23" transform="translate(328.46 3519.79) rotate(-90)">al</text></g></g><g class="cls-2"><g class="cls-18"><text class="cls-23" transform="translate(344.64 3545.33) rotate(-90)">Em</text><text class="cls-23" transform="translate(344.64 3531.73) rotate(-90)">b</text><text class="cls-23" transform="translate(344.64 3526.23) rotate(-90)">r</text><text class="cls-25" transform="translate(344.64 3522.63) rotate(-90)">y<tspan class="cls-26" x="4.66" y="0">o</tspan></text></g></g><g class="cls-2"><g class="cls-18"><text class="cls-23" transform="translate(360.82 3533.79) rotate(-90)">K</text><text class="cls-23" transform="translate(360.82 3528.39) rotate(-90)">nee</text></g></g><g class="cls-2"><g class="cls-18"><text class="cls-23" transform="translate(376.99 3546.75) rotate(-90)">Ad</text><text class="cls-23" transform="translate(376.99 3535.05) rotate(-90)">i</text><text class="cls-23" transform="translate(376.99 3532.75) rotate(-90)">p</text><text class="cls-23" transform="translate(376.99 3527.15) rotate(-90)">o</text><text class="cls-23" transform="translate(376.99 3521.65) rotate(-90)">s</text><text class="cls-23" transform="translate(376.99 3517.55) rotate(-90)">e</text></g></g><g class="cls-2"><g class="cls-18"><text class="cls-23" transform="translate(393.17 3560.76) rotate(-90)">S</text><text class="cls-23" transform="translate(393.17 3555.96) rotate(-90)">p</text><text class="cls-23" transform="translate(393.17 3550.36) rotate(-90)">i</text><text class="cls-23" transform="translate(393.17 3548.06) rotate(-90)">n</text><text class="cls-23" transform="translate(393.17 3542.46) rotate(-90)">a</text><text class="cls-23" transform="translate(393.17 3537.46) rotate(-90)">l C</text><text class="cls-23" transform="translate(393.17 3526.96) rotate(-90)">o</text><text class="cls-23" transform="translate(393.17 3521.46) rotate(-90)">r</text><text class="cls-23" transform="translate(393.17 3517.86) rotate(-90)">d</text></g></g><g class="cls-2"><g class="cls-18"><text class="cls-23" transform="translate(409.34 3566.38) rotate(-90)">L</text><text class="cls-23" transform="translate(409.34 3561.98) rotate(-90)">y</text><text class="cls-23" transform="translate(409.34 3557.28) rotate(-90)">m</text><text class="cls-23" transform="translate(409.34 3548.88) rotate(-90)">p</text><text class="cls-23" transform="translate(409.34 3543.28) rotate(-90)">h</text><text class="cls-23" transform="translate(409.34 3537.78) rotate(-90)"> </text><text class="cls-23" transform="translate(409.34 3535.38) rotate(-90)">N</text><text class="cls-23" transform="translate(409.34 3528.58) rotate(-90)">o</text><text class="cls-23" transform="translate(409.34 3523.08) rotate(-90)">de</text></g></g><g class="cls-2"><g class="cls-18"><text class="cls-23" transform="translate(425.52 3548.96) rotate(-90)">P</text><text class="cls-23" transform="translate(425.52 3543.56) rotate(-90)">l</text><text class="cls-23" transform="translate(425.52 3541.16) rotate(-90)">a</text><text class="cls-23" transform="translate(425.52 3536.06) rotate(-90)">cen</text><text class="cls-23" transform="translate(425.52 3520.86) rotate(-90)">t</text><text class="cls-23" transform="translate(425.52 3517.36) rotate(-90)">a</text></g></g><g class="cls-2"><rect class="cls-4" x="414.8" y="3365.2" width="346.3" height="269"/></g><g class="cls-2"><path class="cls-27" d="M716.4,365.9h5.5v.1h-5.5Zm-17.8-.1h5.5v.2h-5.5Zm-17.7-1.1h5.5V366h-5.5Zm-17.8-.3h5.5V366h-5.5Zm-17.9-1.8h5.6V366h-5.6Zm-17.7-4h5.6V366h-5.6Zm-17.8-4.2h5.6V366h-5.6ZM592,344.6h5.5V366H592Zm-17.8-.2h5.5V366h-5.5Zm-17.8-7.7h5.5V366h-5.5ZM538.6,331h5.6v35h-5.6Zm-17.8-2h5.6v37h-5.6ZM503,327.6h5.6V366H503ZM485.3,326h5.5v40h-5.5Zm-17.8-11.4H473V366h-5.5Zm-17.7-39.1h5.5V366h-5.5Zm-17.9-26.6h5.6V366h-5.6Z" transform="translate(0 3139.9)"/></g><g class="cls-2"><line class="cls-7" x1="425.9" y1="3505.9" x2="728" y2="3505.9"/></g><g class="cls-2"><text class="cls-28" transform="translate(736.54 3508.47)">0</text><g class="cls-29"><text class="cls-28" transform="translate(736.54 3482.52)">500</text></g><g class="cls-29"><text class="cls-28" transform="translate(736.54 3456.6)">1000</text></g><g class="cls-29"><text class="cls-28" transform="translate(736.54 3430.66)">1,500</text></g><g class="cls-29"><text class="cls-28" transform="translate(736.54 3404.72)">2,000</text></g><g class="cls-29"><text class="cls-28" transform="translate(736.54 3378.77)">2,500</text></g><g class="cls-29"><g class="cls-18"><text class="cls-30" transform="translate(438.34 3537.75) rotate(-90)">O</text><text class="cls-30" transform="translate(438.34 3530.75) rotate(-90)">v</text><text class="cls-30" transform="translate(438.34 3526.15) rotate(-90)">a<tspan class="cls-31" x="5.06" y="0">r</tspan><tspan x="8.79" y="0">y</tspan></text></g></g></g><g class="cls-2"><g class="cls-18"><text class="cls-30" transform="translate(456.12 3551.04) rotate(-90)">P</text><text class="cls-30" transform="translate(456.12 3545.64) rotate(-90)">a</text><text class="cls-30" transform="translate(456.12 3540.54) rotate(-90)">n</text><text class="cls-30" transform="translate(456.12 3535.04) rotate(-90)">cr</text><text class="cls-30" transform="translate(456.12 3526.94) rotate(-90)">e</text><text class="cls-30" transform="translate(456.12 3521.74) rotate(-90)">as</text></g></g><g class="cls-2"><g class="cls-18"><text class="cls-30" transform="translate(473.9 3540.63) rotate(-90)">U</text><text class="cls-30" transform="translate(473.9 3533.93) rotate(-90)">r</text><text class="cls-30" transform="translate(473.9 3530.23) rotate(-90)">e</text><text class="cls-30" transform="translate(473.9 3525.03) rotate(-90)">t</text><text class="cls-30" transform="translate(473.9 3521.53) rotate(-90)">er</text></g></g><g class="cls-2"><g class="cls-18"><text class="cls-30" transform="translate(491.69 3579.82) rotate(-90)">U</text><text class="cls-30" transform="translate(491.69 3573.12) rotate(-90)">r</text><text class="cls-30" transform="translate(491.69 3569.42) rotate(-90)">i</text><text class="cls-30" transform="translate(491.69 3567.02) rotate(-90)">n</text><text class="cls-30" transform="translate(491.69 3561.52) rotate(-90)">a</text><text class="cls-30" transform="translate(491.69 3556.42) rotate(-90)">r</text><text class="cls-30" transform="translate(491.69 3552.82) rotate(-90)">y </text><text class="cls-30" transform="translate(491.69 3545.62) rotate(-90)">B</text><text class="cls-30" transform="translate(491.69 3540.02) rotate(-90)">l</text><text class="cls-30" transform="translate(491.69 3537.52) rotate(-90)">a</text><text class="cls-30" transform="translate(491.69 3532.52) rotate(-90)">d</text><text class="cls-30" transform="translate(491.69 3527.02) rotate(-90)">d</text><text class="cls-30" transform="translate(491.69 3521.52) rotate(-90)">er</text></g></g><g class="cls-2"><g class="cls-18"><text class="cls-30" transform="translate(509.45 3541.32) rotate(-90)">S</text><text class="cls-30" transform="translate(509.45 3536.52) rotate(-90)">p</text><text class="cls-30" transform="translate(509.45 3530.92) rotate(-90)">l</text><text class="cls-30" transform="translate(509.45 3528.62) rotate(-90)">e</text><text class="cls-30" transform="translate(509.45 3523.32) rotate(-90)">e</text><text class="cls-30" transform="translate(509.45 3518.12) rotate(-90)">n</text></g></g><g class="cls-2"><g class="cls-18"><text class="cls-30" transform="translate(527.23 3535.8) rotate(-90)">F</text><text class="cls-30" transform="translate(527.23 3531) rotate(-90)">e</text><text class="cls-30" transform="translate(527.23 3525.7) rotate(-90)">t</text><text class="cls-30" transform="translate(527.23 3522.2) rotate(-90)">us</text></g></g><g class="cls-2"><g class="cls-18"><text class="cls-30" transform="translate(545.02 3546) rotate(-90)">Th</text><text class="cls-30" transform="translate(545.02 3535.3) rotate(-90)">y</text><text class="cls-30" transform="translate(545.02 3530.6) rotate(-90)">m</text><text class="cls-30" transform="translate(545.02 3522.2) rotate(-90)">us</text></g></g><g class="cls-2"><g class="cls-18"><text class="cls-30" transform="translate(562.8 3541.37) rotate(-90)">U</text><text class="cls-30" transform="translate(562.8 3534.67) rotate(-90)">t</text><text class="cls-30" transform="translate(562.8 3531.17) rotate(-90)">e</text><text class="cls-30" transform="translate(562.8 3525.87) rotate(-90)">r</text><text class="cls-30" transform="translate(562.8 3522.27) rotate(-90)">us</text></g></g><g class="cls-2"><g class="cls-18"><text class="cls-30" transform="translate(580.58 3575.74) rotate(-90)">S</text><text class="cls-30" transform="translate(580.58 3570.94) rotate(-90)">m</text><text class="cls-30" transform="translate(580.58 3562.54) rotate(-90)">a</text><text class="cls-30" transform="translate(580.58 3557.44) rotate(-90)">l</text><text class="cls-30" transform="translate(580.58 3555.04) rotate(-90)">l </text><text class="cls-30" transform="translate(580.58 3550.24) rotate(-90)">I</text><text class="cls-30" transform="translate(580.58 3547.64) rotate(-90)">n</text><text class="cls-30" transform="translate(580.58 3542.04) rotate(-90)">t</text><text class="cls-30" transform="translate(580.58 3538.64) rotate(-90)">e<tspan class="cls-32" x="5.25" y="0">s</tspan><tspan x="9.27" y="0">ti</tspan></text><text class="cls-30" transform="translate(580.58 3523.34) rotate(-90)">n</text><text class="cls-30" transform="translate(580.58 3517.84) rotate(-90)">e</text></g></g><g class="cls-2"><g class="cls-18"><text class="cls-30" transform="translate(598.37 3537.7) rotate(-90)"><tspan class="cls-33">T</tspan><tspan x="4.21" y="0">o</tspan></text><text class="cls-30" transform="translate(598.37 3527) rotate(-90)">ns</text><text class="cls-30" transform="translate(598.37 3517.4) rotate(-90)">il</text></g></g><g class="cls-2"><g class="cls-18"><text class="cls-30" transform="translate(616.15 3627.84) rotate(-90)">P</text><text class="cls-30" transform="translate(616.15 3622.44) rotate(-90)">e</text><text class="cls-30" transform="translate(616.15 3617.14) rotate(-90)">r</text><text class="cls-30" transform="translate(616.15 3613.54) rotate(-90)">i</text><text class="cls-30" transform="translate(616.15 3611.14) rotate(-90)">p</text><text class="cls-30" transform="translate(616.15 3605.64) rotate(-90)">he</text><text class="cls-30" transform="translate(616.15 3594.84) rotate(-90)">r</text><text class="cls-30" transform="translate(616.15 3591.24) rotate(-90)">a</text><text class="cls-30" transform="translate(616.15 3586.14) rotate(-90)">l</text><text class="cls-30" transform="translate(616.15 3583.74) rotate(-90)"> </text><text class="cls-30" transform="translate(616.15 3581.34) rotate(-90)">N</text><text class="cls-30" transform="translate(616.15 3574.54) rotate(-90)">e</text><text class="cls-30" transform="translate(616.15 3569.34) rotate(-90)">r</text><text class="cls-30" transform="translate(616.15 3565.64) rotate(-90)">v</text><text class="cls-30" transform="translate(616.15 3561.04) rotate(-90)">o</text><text class="cls-30" transform="translate(616.15 3555.44) rotate(-90)">u</text><text class="cls-30" transform="translate(616.15 3549.94) rotate(-90)">s</text><text class="cls-30" transform="translate(616.15 3545.84) rotate(-90)"> </text><text class="cls-30" transform="translate(616.15 3543.44) rotate(-90)">S</text><text class="cls-30" transform="translate(616.15 3538.64) rotate(-90)">y</text><text class="cls-30" transform="translate(616.15 3533.84) rotate(-90)">s</text><text class="cls-30" transform="translate(616.15 3529.74) rotate(-90)">t</text><text class="cls-30" transform="translate(616.15 3526.14) rotate(-90)">e</text><text class="cls-30" transform="translate(616.15 3521.04) rotate(-90)">m</text></g></g><g class="cls-2"><g class="cls-18"><text class="cls-30" transform="translate(633.94 3575.04) rotate(-90)">F</text><text class="cls-30" transform="translate(633.94 3570.24) rotate(-90)">a</text><text class="cls-30" transform="translate(633.94 3565.14) rotate(-90)">l</text><text class="cls-30" transform="translate(633.94 3562.74) rotate(-90)">l</text><text class="cls-30" transform="translate(633.94 3560.34) rotate(-90)">o</text><text class="cls-30" transform="translate(633.94 3554.84) rotate(-90)">p</text><text class="cls-30" transform="translate(633.94 3549.34) rotate(-90)">i</text><text class="cls-30" transform="translate(633.94 3546.94) rotate(-90)">a</text><text class="cls-30" transform="translate(633.94 3541.84) rotate(-90)">n</text><text class="cls-30" transform="translate(633.94 3536.34) rotate(-90)"> <tspan class="cls-34" x="2.39" y="0">T</tspan><tspan x="6.88" y="0">ube</tspan></text></g></g><g class="cls-2"><g class="cls-18"><text class="cls-30" transform="translate(651.72 3575.93) rotate(-90)">La</text><text class="cls-30" transform="translate(651.72 3566.43) rotate(-90)">r</text><text class="cls-30" transform="translate(651.72 3562.83) rotate(-90)">g</text><text class="cls-30" transform="translate(651.72 3557.93) rotate(-90)">e</text><text class="cls-30" transform="translate(651.72 3552.63) rotate(-90)"> </text><text class="cls-30" transform="translate(651.72 3550.23) rotate(-90)">I</text><text class="cls-30" transform="translate(651.72 3547.63) rotate(-90)"><tspan class="cls-35">n</tspan><tspan x="5.45" y="0">t</tspan></text><text class="cls-30" transform="translate(651.72 3538.63) rotate(-90)">e<tspan class="cls-32" x="5.25" y="0">s</tspan><tspan x="9.27" y="0">ti</tspan></text><text class="cls-30" transform="translate(651.72 3523.33) rotate(-90)">n</text><text class="cls-30" transform="translate(651.72 3517.83) rotate(-90)">e</text></g></g><g class="cls-2"><g class="cls-18"><text class="cls-30" transform="translate(669.5 3594) rotate(-90)">L</text><text class="cls-30" transform="translate(669.5 3589.6) rotate(-90)">y</text><text class="cls-30" transform="translate(669.5 3584.9) rotate(-90)">m</text><text class="cls-30" transform="translate(669.5 3576.5) rotate(-90)">p</text><text class="cls-30" transform="translate(669.5 3570.9) rotate(-90)">h</text><text class="cls-30" transform="translate(669.5 3565.4) rotate(-90)"> <tspan class="cls-36" x="2.39" y="0">V</tspan><tspan x="7.79" y="0">a</tspan></text><text class="cls-30" transform="translate(669.5 3552) rotate(-90)">s</text><text class="cls-30" transform="translate(669.5 3547.9) rotate(-90)">c</text><text class="cls-30" transform="translate(669.5 3543.4) rotate(-90)">u</text><text class="cls-30" transform="translate(669.5 3537.9) rotate(-90)">l</text><text class="cls-30" transform="translate(669.5 3535.5) rotate(-90)"><tspan class="cls-37">a</tspan><tspan x="4.96" y="0">t</tspan></text><text class="cls-30" transform="translate(669.5 3527) rotate(-90)">u<tspan class="cls-38" x="5.55" y="0">r</tspan><tspan x="9.09" y="0">e</tspan></text></g></g><g class="cls-2"><g class="cls-18"><text class="cls-39" transform="translate(687.26 3590.12) rotate(-90)">B</text><text class="cls-39" transform="translate(687.26 3584.32) rotate(-90)">l</text><text class="cls-39" transform="translate(687.26 3581.92) rotate(-90)">oo</text><text class="cls-39" transform="translate(687.26 3570.92) rotate(-90)">d</text><text class="cls-39" transform="translate(687.26 3565.32) rotate(-90)"> </text><text class="cls-39" transform="translate(687.26 3563.02) rotate(-90)">V</text><text class="cls-39" transform="translate(687.26 3557.12) rotate(-90)">a</text><text class="cls-39" transform="translate(687.26 3552.02) rotate(-90)">s</text><text class="cls-39" transform="translate(687.26 3547.92) rotate(-90)">c</text><text class="cls-39" transform="translate(687.26 3543.52) rotate(-90)">u</text><text class="cls-39" transform="translate(687.26 3538.02) rotate(-90)">l</text><text class="cls-39" transform="translate(687.26 3535.52) rotate(-90)">a</text><text class="cls-39" transform="translate(687.26 3530.52) rotate(-90)">t</text><text class="cls-39" transform="translate(687.26 3526.92) rotate(-90)">u</text><text class="cls-39" transform="translate(687.26 3521.42) rotate(-90)">r</text><text class="cls-39" transform="translate(687.26 3517.82) rotate(-90)">e</text></g></g><g class="cls-2"><g class="cls-18"><text class="cls-30" transform="translate(705.05 3576.32) rotate(-90)">N</text><text class="cls-30" transform="translate(705.05 3569.52) rotate(-90)">a</text><text class="cls-30" transform="translate(705.05 3564.52) rotate(-90)">s</text><text class="cls-30" transform="translate(705.05 3560.32) rotate(-90)">a</text><text class="cls-30" transform="translate(705.05 3555.32) rotate(-90)">l</text><text class="cls-30" transform="translate(705.05 3552.92) rotate(-90)"> </text><text class="cls-30" transform="translate(705.05 3550.62) rotate(-90)">P</text><text class="cls-30" transform="translate(705.05 3545.12) rotate(-90)">a</text><text class="cls-30" transform="translate(705.05 3540.02) rotate(-90)">s</text><text class="cls-30" transform="translate(705.05 3536.02) rotate(-90)">s</text><text class="cls-30" transform="translate(705.05 3531.92) rotate(-90)">a</text><text class="cls-30" transform="translate(705.05 3526.82) rotate(-90)">g</text><text class="cls-30" transform="translate(705.05 3521.92) rotate(-90)">es</text></g></g><g class="cls-2"><g class="cls-18"><text class="cls-30" transform="translate(722.83 3598.04) rotate(-90)">Bo</text><text class="cls-30" transform="translate(722.83 3586.74) rotate(-90)">n</text><text class="cls-30" transform="translate(722.83 3581.24) rotate(-90)">e</text><text class="cls-30" transform="translate(722.83 3576.04) rotate(-90)"><tspan xml:space="preserve"> M</tspan></text><text class="cls-30" transform="translate(722.83 3564.64) rotate(-90)">a</text><text class="cls-30" transform="translate(722.83 3559.64) rotate(-90)">r</text><text class="cls-30" transform="translate(722.83 3556.04) rotate(-90)">r</text><text class="cls-30" transform="translate(722.83 3552.34) rotate(-90)">o</text><text class="cls-30" transform="translate(722.83 3546.74) rotate(-90)">w</text><text class="cls-30" transform="translate(722.83 3539.34) rotate(-90)"> </text><text class="cls-30" transform="translate(722.83 3536.94) rotate(-90)">P</text><text class="cls-30" transform="translate(722.83 3531.54) rotate(-90)">elvis</text></g></g></g></g></g></g></g></g></g></g></g></g></g></g><rect class="cls-1" x="132.5" y="3163.2" width="321.1" height="171.8"/><rect class="cls-1" y="3139.9" width="960" height="540"/><rect class="cls-1" y="3139.9" width="960" height="540"/><rect class="cls-1" y="3139.9" width="960" height="540"/><rect class="cls-1" y="3139.9" width="960" height="540"/><rect class="cls-1" y="3139.9" width="960" height="540"/><rect class="cls-1" y="3139.9" width="960" height="540"/><rect class="cls-1" y="3139.9" width="960" height="540"/><rect class="cls-1" y="3139.9" width="960" height="540"/><rect class="cls-1" y="3139.9" width="960" height="540"/><rect class="cls-1" y="3139.9" width="960" height="540"/><rect class="cls-1" y="3139.9" width="960" height="540"/><rect class="cls-1" y="3139.9" width="960" height="540"/><rect class="cls-1" y="3139.9" width="960" height="540"/><rect class="cls-1" y="3139.9" width="960" height="540"/><rect class="cls-1" y="3139.9" width="960" height="540"/><rect class="cls-1" y="3139.9" width="960" height="540"/><rect class="cls-1" y="3139.9" width="960" height="540"/><rect class="cls-1" y="3139.9" width="960" height="540"/><rect class="cls-1" y="3139.9" width="960" height="540"/><rect class="cls-1" y="3139.9" width="960" height="540"/><rect class="cls-1" y="3139.9" width="960" height="540"/><rect class="cls-1" y="3139.9" width="960" height="540"/><rect class="cls-1" y="3139.9" width="960" height="540"/><rect class="cls-1" y="3139.9" width="960" height="540"/><rect class="cls-1" y="3139.9" width="960" height="540"/><rect class="cls-1" y="3139.9" width="960" height="540"/><rect class="cls-1" y="3139.9" width="960" height="540"/><rect class="cls-1" y="3139.9" width="960" height="540"/><rect class="cls-1" y="3139.9" width="960" height="540"/><rect class="cls-1" y="3139.9" width="960" height="540"/><rect class="cls-1" y="3139.9" width="960" height="540"/><rect class="cls-1" y="3139.9" width="960" height="540"/><rect class="cls-1" y="3139.9" width="960" height="540"/><rect class="cls-1" y="3139.9" width="960" height="540"/><rect class="cls-1" y="3139.9" width="960" height="540"/><rect class="cls-1" y="3139.9" width="960" height="540"/><rect class="cls-1" y="3139.9" width="960" height="540"/><rect class="cls-1" y="3139.9" width="960" height="540"/><rect class="cls-1" y="3139.9" width="960" height="540"/><rect class="cls-1" y="3139.9" width="960" height="540"/><rect class="cls-1" y="3139.9" width="960" height="540"/><rect class="cls-1" y="3139.9" width="960" height="540"/><rect class="cls-1" y="3139.9" width="960" height="540"/><rect class="cls-1" y="3139.9" width="960" height="540"/><rect class="cls-1" y="3139.9" width="960" height="540"/><rect class="cls-1" y="3139.9" width="960" height="540"/><rect class="cls-1" y="3139.9" width="960" height="540"/><rect class="cls-1" y="3139.9" width="960" height="540"/><rect class="cls-1" y="3139.9" width="960" height="540"/><rect class="cls-1" y="3139.9" width="960" height="540"/><rect class="cls-1" x="133.6" y="3356" width="307.4" height="216.7"/><rect class="cls-1" y="3139.9" width="960" height="540"/><rect class="cls-1" y="3139.9" width="960" height="540"/><rect class="cls-1" y="3139.9" width="960" height="540"/><rect class="cls-1" y="3139.9" width="960" height="540"/><rect class="cls-1" y="3139.9" width="960" height="540"/><rect class="cls-1" y="3139.9" width="960" height="540"/><rect class="cls-1" y="3139.9" width="960" height="540"/><rect class="cls-1" x="133.6" y="3356" width="307.4" height="216.7"/><rect class="cls-1" x="133.6" y="3356" width="307.4" height="216.7"/><rect class="cls-1" x="133.6" y="3356" width="307.4" height="216.7"/><rect class="cls-1" x="133.6" y="3356" width="307.4" height="216.7"/><rect class="cls-1" x="133.6" y="3356" width="307.4" height="216.7"/><rect class="cls-1" x="133.6" y="3356" width="307.4" height="216.7"/><rect class="cls-1" x="133.6" y="3356" width="307.4" height="216.7"/><rect class="cls-1" x="133.6" y="3356" width="307.4" height="216.7"/><rect class="cls-1" x="133.6" y="3356" width="307.4" height="216.7"/><rect class="cls-1" x="133.6" y="3356" width="307.4" height="216.7"/><rect class="cls-1" x="133.6" y="3356" width="307.4" height="216.7"/><rect class="cls-1" x="133.6" y="3356" width="307.4" height="216.7"/><rect class="cls-1" x="133.6" y="3356" width="307.4" height="216.7"/><rect class="cls-1" x="133.6" y="3356" width="307.4" height="216.7"/><rect class="cls-1" x="133.6" y="3356" width="307.4" height="216.7"/><rect class="cls-1" x="414.7" y="3365.1" width="346.4" height="269"/><rect class="cls-1" y="3139.9" width="960" height="540"/><rect class="cls-1" y="3139.9" width="960" height="540"/><rect class="cls-1" y="3139.9" width="960" height="540"/><rect class="cls-1" y="3139.9" width="960" height="540"/><rect class="cls-1" y="3139.9" width="960" height="540"/><rect class="cls-1" y="3139.9" width="960" height="540"/><rect class="cls-1" x="414.7" y="3365.1" width="346.4" height="269"/><rect class="cls-1" x="414.7" y="3365.1" width="346.4" height="269"/><rect class="cls-1" x="414.7" y="3365.1" width="346.4" height="269"/><rect class="cls-1" x="414.7" y="3365.1" width="346.4" height="269"/><rect class="cls-1" x="414.7" y="3365.1" width="346.4" height="269"/><rect class="cls-1" x="414.7" y="3365.1" width="346.4" height="269"/><rect class="cls-1" x="414.7" y="3365.1" width="346.4" height="269"/><rect class="cls-1" x="414.7" y="3365.1" width="346.4" height="269"/><rect class="cls-1" x="414.7" y="3365.1" width="346.4" height="269"/><rect class="cls-1" x="414.7" y="3365.1" width="346.4" height="269"/><rect class="cls-1" x="414.7" y="3365.1" width="346.4" height="269"/><rect class="cls-1" x="414.7" y="3365.1" width="346.4" height="269"/><rect class="cls-1" x="414.7" y="3365.1" width="346.4" height="269"/><rect class="cls-1" x="414.7" y="3365.1" width="346.4" height="269"/><rect class="cls-1" x="414.7" y="3365.1" width="346.4" height="269"/><rect class="cls-1" x="414.7" y="3365.1" width="346.4" height="269"/></svg>